<?xml version="1.0" encoding="UTF-8"?>
<svg width="500px" height="321px" viewBox="0 0 500 321" version="1.1" xmlns="http://www.w3.org/2000/svg" xmlns:xlink="http://www.w3.org/1999/xlink">
    <title>64</title>
    <g id="Page-1" stroke="none" stroke-width="1" fill="none" fill-rule="evenodd">
        <g id="Desktop-HD-Copy" transform="translate(-467.000000, -224.000000)" fill-rule="nonzero">
            <g id="64" transform="translate(467.000000, 224.000000)">
                <g id="Group" transform="translate(146.000000, 8.000000)">
                    <g transform="translate(122.385558, 188.209144)">
                        <polygon id="Path" fill="#65CAEB" points="1.15233155 22.0303756 15.0200457 1.18868933 73.5108058 21.7926377 72.5174165 23.2586879 22.0135062 29.4002494"></polygon>
                        <path d="M22.0135062,30.4700698 C21.8942995,30.4700698 21.7750927,30.4304469 21.655886,30.3908239 L0.794711414,23.060573 C0.476826848,22.9417041 0.238413424,22.7039662 0.119206712,22.3869824 C2.16285323e-14,22.0699986 0.0397355707,21.7133918 0.238413424,21.4360309 L14.1061276,0.594344665 C14.3842766,0.198114888 14.900839,-5.57054403e-14 15.3776659,0.158491911 L73.8684259,20.7624403 C74.1863105,20.8813092 74.4247239,21.1190471 74.5439306,21.4360309 C74.6631373,21.7530147 74.5836662,22.1096215 74.4247239,22.3869824 L73.4710702,23.8530326 C73.3121279,24.1303934 73.0339789,24.2888853 72.7160944,24.3285083 L22.212184,30.4700698 C22.0929773,30.4700698 22.0532417,30.4700698 22.0135062,30.4700698 Z M2.78148995,21.4756539 L22.1327129,28.2908061 L71.6034984,22.2681135 L15.4174014,2.45662462 L2.78148995,21.4756539 Z" id="Shape" fill="#000000"></path>
                    </g>
                    <g transform="translate(11.920671, 188.209144)">
                        <polygon id="Path" fill="#65CAEB" points="1.43048055 12.6397299 95.9216677 1.18868933 111.617218 22.0303756 17.5631223 33.4814161"></polygon>
                        <path d="M17.5631223,34.5512365 C17.2452377,34.5512365 16.9273531,34.3927446 16.7286753,34.1153838 L0.596033561,13.2736975 C0.357620136,12.9567137 0.317884566,12.5604839 0.437091278,12.2038771 C0.596033561,11.8472703 0.913918126,11.6095325 1.31127383,11.5699095 L95.802461,0.118868933 C96.1998167,0.0792459553 96.5574368,0.237737866 96.7958502,0.554721687 L112.451665,21.3964079 C112.690079,21.7133918 112.729814,22.1096215 112.570872,22.4662283 C112.41193,22.8228351 112.094045,23.060573 111.696689,23.100196 L17.682329,34.5512365 C17.682329,34.5512365 17.6425934,34.5512365 17.5631223,34.5512365 Z M3.45699465,13.4718124 L18.0796847,32.3323498 L109.63044,21.1982931 L95.4448408,2.33775568 L3.45699465,13.4718124 Z" id="Shape" fill="#000000"></path>
                    </g>
                    <g transform="translate(28.212255, 208.813092)">
                        <polygon id="Path" fill="#54A8C2" points="82.6102515 12.8774677 59.7622983 33.4814161 1.27153826 12.8774677 95.3256341 1.4264272 116.186809 8.79630104"></polygon>
                        <path d="M59.7622983,34.5512365 C59.6430916,34.5512365 59.5238849,34.5116136 59.4046782,34.4719906 L0.913918126,13.8680422 C0.437091278,13.7095503 0.158942283,13.2340745 0.198677854,12.7189758 C0.238413424,12.2038771 0.635769131,11.8472703 1.15233155,11.7680244 L95.1666918,0.316983821 C95.3256341,0.277360844 95.4845764,0.316983821 95.6435187,0.356606799 L116.544429,7.72648065 C117.021256,7.88497256 117.299405,8.36044829 117.259669,8.875547 C117.219934,9.39064571 116.822578,9.74725251 116.306015,9.82649846 L83.0870783,13.8680422 L60.4775386,34.2342527 C60.2788608,34.4719906 60.0404473,34.5512365 59.7622983,34.5512365 Z M5.96033561,13.3925665 L59.4841493,32.2531038 L81.8552756,12.0850082 C82.0142179,11.9265163 82.2128958,11.8472703 82.4513092,11.8076473 L111.458276,8.28120233 L95.1269563,2.53587057 L5.96033561,13.3925665 Z" id="Shape" fill="#000000"></path>
                    </g>
                    <g transform="translate(18.675718, 0.000000)">
                        <g transform="translate(42.119705, 133.529435)">
                            <path d="M56.3053037,1.14906635 C56.186097,1.14906635 56.1066258,1.18868933 56.0271547,1.18868933 C55.907948,1.18868933 55.8284768,1.14906635 55.7490057,1.14906635 L36.3183116,1.14906635 C32.3844901,1.14906635 29.1659089,4.31890457 29.1659089,8.28120233 C29.1659089,12.2038771 32.3844901,15.4133383 36.3183116,15.4133383 L48.0005694,15.4133383 L48.0005694,28.6077899 C43.3515076,30.2719549 39.338215,33.3229242 36.4375183,37.245599 C33.2586727,35.7795488 29.7619425,34.9474663 26.0267988,34.9474663 C12.3577625,34.9474663 1.31127383,46.0022771 1.31127383,59.6325814 C1.31127383,71.2024909 9.29812354,80.8704974 20.0664632,83.5252369 L20.0664632,122.078394 L64.7292447,122.078394 L64.7292447,94.1441949 L64.7292447,75.0459197 L64.7292447,74.8478048 L64.7292447,28.5681669 L64.7292447,9.46989166 C64.6895091,4.87362625 60.9543655,1.14906635 56.3053037,1.14906635 Z" id="Path" fill="#FFE8D8"></path>
                            <path d="M64.6895091,123.068969 L20.0267276,123.068969 C19.4306941,123.068969 18.9538672,122.593493 18.9538672,121.999148 L18.9538672,84.2780735 C7.867643,81.1478583 0.198677854,71.0836219 0.198677854,59.5533354 C0.198677854,45.3683094 11.7617289,33.7984 25.9870632,33.7984 C29.4440579,33.7984 32.8215814,34.4719906 36.0401626,35.8587948 C38.8613881,32.2531038 42.5965318,29.5191184 46.8482379,27.8153303 L46.8482379,16.4435357 L36.2785761,16.4435357 C31.748721,16.4435357 28.0533129,12.7585988 28.0533129,8.24157936 C28.0533129,3.7245599 31.748721,0.0396229777 36.2785761,0.0396229777 L55.7092701,0.0396229777 C55.7490057,0.0396229777 55.9874191,0.0396229777 56.0271547,0.0792459553 C56.1066258,0.0792459553 56.186097,0.0396229777 56.3053037,0.0396229777 C61.5106634,0.0396229777 65.7623695,4.27928159 65.7623695,9.46989166 L65.7623695,121.999148 C65.7623695,122.593493 65.2855427,123.068969 64.6895091,123.068969 Z M21.099588,120.929328 L63.6166487,120.929328 L63.6166487,9.46989166 C63.6166487,5.46797092 60.3583319,2.17926377 56.3053037,2.17926377 C56.2258325,2.17926377 56.1463614,2.21888675 56.0668903,2.21888675 C55.9874191,2.21888675 55.7887413,2.21888675 55.7490057,2.17926377 L36.3183116,2.17926377 C32.9805237,2.17926377 30.2387693,4.87362625 30.2387693,8.24157936 C30.2387693,11.5699095 32.9805237,14.3038949 36.3183116,14.3038949 L48.0005694,14.3038949 C48.596603,14.3038949 49.0734298,14.7793707 49.0734298,15.3737153 L49.0734298,28.5681669 C49.0734298,29.0040197 48.7952808,29.4398724 48.3581895,29.5983643 C43.9078056,31.1832834 40.0931908,34.0361378 37.3117009,37.8399437 C36.9938163,38.2361735 36.4375183,38.3946654 36.0004271,38.1965505 C32.8215814,36.7305003 29.4837935,35.9776637 26.0665344,35.9776637 C13.0332672,35.9776637 2.42386981,46.5569988 2.42386981,59.5533354 C2.42386981,70.4100313 9.81468596,79.800677 20.3446122,82.4157936 C20.821439,82.5346625 21.1790592,82.9705152 21.1790592,83.445991 L21.1790592,120.929328 L21.099588,120.929328 Z" id="Shape" fill="#000000"></path>
                        </g>
                        <g>
                            <g transform="translate(22.649275, 25.754935)">
                                <g>
                                    <path d="M94.8090717,66.4081106 L94.8090717,66.4081106 C96.7958502,61.1382545 97.9084462,55.4721687 97.9084462,49.5287221 C97.9084462,22.9020811 76.2525602,1.30755826 49.5502567,1.30755826 C22.8479532,1.30755826 1.19206712,22.9020811 1.19206712,49.5287221 C1.19206712,55.4721687 2.34439867,61.1382545 4.29144164,66.4081106 L4.29144164,66.4081106 L4.96694634,68.2307675 C4.96694634,68.2307675 4.96694634,68.2703905 4.96694634,68.2703905 L21.7353572,113.202847 C21.7353572,113.202847 27.6162216,129.329399 36.9143452,129.329399 L49.5105211,129.329399 L62.106697,129.329399 C71.4048206,129.329399 77.285685,113.202847 77.285685,113.202847 L94.0540959,68.2703905 C94.0540959,68.2703905 94.0540959,68.2307675 94.0540959,68.2307675 L94.8090717,66.4081106 Z" id="Path" fill="#FFD754"></path>
                                    <path d="M62.106697,130.39922 L36.9540808,130.39922 C26.9804525,130.39922 20.9803813,114.233045 20.7419679,113.559454 L3.97355707,68.6666203 C3.97355707,68.6269973 3.9338215,68.5873743 3.9338215,68.5873743 L3.2583168,66.7647174 C3.2583168,66.7250944 3.21858123,66.6854714 3.21858123,66.6458484 C1.15233155,61.0590086 0.0794711414,55.3136768 0.0794711414,49.5287221 C0.0794711414,22.3473594 22.2519196,0.237737866 49.5105211,0.237737866 C76.7691226,0.237737866 98.941571,22.3473594 98.941571,49.5287221 C98.941571,55.3136768 97.9084462,61.0986316 95.802461,66.6458484 C95.802461,66.6854714 95.7627254,66.7250944 95.7627254,66.7647174 L95.0872207,68.6269973 C95.0872207,68.6666203 95.0872207,68.6666203 95.0474851,68.7062433 L78.2790743,113.599077 C78.0803964,114.233045 72.0803253,130.39922 62.106697,130.39922 Z M5.96033561,67.8345378 C5.96033561,67.8741607 5.96033561,67.8741607 6.00007118,67.9137837 L22.768482,112.84624 C22.8082176,113.004732 28.4904042,128.259579 36.9540808,128.259579 L62.106697,128.259579 C70.5703736,128.259579 76.2128246,113.004732 76.2922957,112.84624 L93.0607066,67.9137837 C93.0607066,67.8741607 93.1004422,67.8345378 93.1004422,67.7949148 L93.6964757,66.1703727 C93.6964757,66.1307497 93.7362113,66.0911268 93.7362113,66.0118808 C95.7627254,60.6231558 96.7958502,55.075939 96.7958502,49.4890991 C96.7958502,23.4964258 75.5770555,2.33775568 49.5105211,2.33775568 C23.4439867,2.33775568 2.22519196,23.4964258 2.22519196,49.4890991 C2.22519196,55.075939 3.2583168,60.6231558 5.2848309,66.0118808 C5.2848309,66.0515038 5.32456647,66.0911268 5.32456647,66.1703727 L5.96033561,67.8345378 Z" id="Shape" fill="#000000"></path>
                                </g>
                                <g transform="translate(13.510094, 139.076652)" id="Path">
                                    <line x1="1.07286041" y1="1.22831231" x2="71.0074648" y2="1.22831231" fill="#FFFFFF"></line>
                                    <path d="M71.0074648,2.2981327 L1.07286041,2.2981327 C0.476826848,2.2981327 0,1.82265697 0,1.22831231 C0,0.633967643 0.476826848,0.158491911 1.07286041,0.158491911 L71.0074648,0.158491911 C71.6034984,0.158491911 72.0803253,0.633967643 72.0803253,1.22831231 C72.0803253,1.82265697 71.6034984,2.2981327 71.0074648,2.2981327 Z" fill="#000000"></path>
                                </g>
                                <g transform="translate(17.086295, 152.944694)" id="Path">
                                    <line x1="1.15233155" y1="1.30755826" x2="63.7358554" y2="1.30755826" fill="#FFFFFF"></line>
                                    <path d="M63.7358554,2.37737866 L1.15233155,2.37737866 C0.55629799,2.37737866 0.0794711414,1.90190293 0.0794711414,1.30755826 C0.0794711414,0.713213598 0.55629799,0.237737866 1.15233155,0.237737866 L63.7358554,0.237737866 C64.331889,0.237737866 64.8087158,0.713213598 64.8087158,1.30755826 C64.8087158,1.90190293 64.331889,2.37737866 63.7358554,2.37737866 Z" fill="#000000"></path>
                                </g>
                                <g transform="translate(24.238698, 127.982218)">
                                    <g>
                                        <rect id="Rectangle" fill="#D1D3D4" x="1.19206712" y="1.34718124" width="48.2389828" height="10.9755648"></rect>
                                        <path d="M49.43105,13.3925665 L1.19206712,13.3925665 C0.596033561,13.3925665 0.119206712,12.9170907 0.119206712,12.3227461 L0.119206712,1.34718124 C0.119206712,0.752836576 0.596033561,0.277360844 1.19206712,0.277360844 L49.43105,0.277360844 C50.0270835,0.277360844 50.5039104,0.752836576 50.5039104,1.34718124 L50.5039104,12.3227461 C50.5039104,12.9170907 50.0270835,13.3925665 49.43105,13.3925665 Z M2.26492753,11.2529257 L48.318454,11.2529257 L48.318454,2.41700164 L2.26492753,2.41700164 L2.26492753,11.2529257 Z" id="Shape" fill="#000000"></path>
                                    </g>
                                    <g transform="translate(0.397356, 24.962476)">
                                        <path d="M10.5299262,15.4529613 L39.2984794,15.4529613 C43.8680701,12.0453852 47.205858,7.05289003 48.4773963,1.26793529 L1.3510094,1.26793529 C2.62254767,7.05289003 5.96033561,12.0453852 10.5299262,15.4529613 Z" id="Path" fill="#D1D3D4"></path>
                                        <path d="M39.2984794,16.5227817 L10.5299262,16.5227817 C10.2915128,16.5227817 10.0530994,16.4435357 9.8941571,16.3246668 C5.00668191,12.6793529 1.58942283,7.40949682 0.317884566,1.50567315 C0.238413424,1.18868933 0.317884566,0.871705509 0.516562419,0.594344665 C0.715240273,0.356606799 1.03312484,0.198114888 1.3510094,0.198114888 L48.4376607,0.198114888 C48.7555453,0.198114888 49.0734298,0.356606799 49.2721077,0.594344665 C49.4707855,0.832082531 49.5502567,1.18868933 49.4707855,1.50567315 C48.1992473,7.40949682 44.7819882,12.6793529 39.894513,16.3246668 C39.7355707,16.4435357 39.5368928,16.5227817 39.2984794,16.5227817 Z M10.8875464,14.3831409 L38.9408593,14.3831409 C42.9144164,11.3321716 45.7753774,7.092513 47.0866513,2.37737866 L2.74175438,2.37737866 C4.09276378,7.13213598 6.9139893,11.3321716 10.8875464,14.3831409 Z" id="Shape" fill="#000000"></path>
                                    </g>
                                    <g transform="translate(0.000000, 11.094434)">
                                        <path d="M49.43105,1.22831231 L1.19206712,1.22831231 L1.19206712,10.1434823 C1.19206712,11.8868933 1.39074497,13.5510584 1.74836511,15.1756004 L48.8350164,15.1756004 C49.1926365,13.5510584 49.3913144,11.8868933 49.3913144,10.1434823 L49.3913144,1.22831231 L49.43105,1.22831231 Z" id="Path" fill="#E6E7E8"></path>
                                        <path d="M48.8350164,16.2454208 L1.74836511,16.2454208 C1.23180269,16.2454208 0.794711414,15.888814 0.675504702,15.4133383 C0.278148995,13.5906813 0.0794711414,11.8472703 0.0794711414,10.1434823 L0.0794711414,1.22831231 C0.0794711414,0.633967643 0.55629799,0.158491911 1.15233155,0.158491911 L49.3913144,0.158491911 C49.9873479,0.158491911 50.4641748,0.633967643 50.4641748,1.22831231 L50.4641748,10.1434823 C50.4641748,11.8472703 50.2654969,13.5510584 49.8681412,15.4133383 C49.7886701,15.888814 49.3515788,16.2454208 48.8350164,16.2454208 Z M2.66228324,14.0661571 L48.0005694,14.0661571 C48.2389828,12.6793529 48.3581895,11.4114176 48.3581895,10.1038593 L48.3581895,2.2981327 L2.26492753,2.2981327 L2.26492753,10.1038593 C2.26492753,11.4114176 2.38413424,12.7189758 2.66228324,14.0661571 Z" id="Shape" fill="#000000"></path>
                                    </g>
                                </g>
                                <path d="M43.1528298,130.39922 C42.5567962,130.39922 42.0799694,129.923744 42.0799694,129.329399 L42.0799694,104.802776 L23.7618713,65.7741429 C23.5234579,65.2194212 23.7221357,64.5854536 24.2784337,64.3477157 C24.8347317,64.1099779 25.4705008,64.3080928 25.7089142,64.8628144 L44.146219,104.129185 C44.2256902,104.287677 44.2654258,104.446169 44.2654258,104.565038 L44.2654258,129.329399 C44.2256902,129.923744 43.7488633,130.39922 43.1528298,130.39922 Z" id="Path" fill="#000000"></path>
                                <path d="M54.9940299,130.39922 C54.3979963,130.39922 53.9211694,129.923744 53.9211694,129.329399 L53.9211694,104.565038 C53.9211694,104.406546 53.960905,104.248054 54.0403762,104.129185 L72.477681,64.8628144 C72.7160944,64.3080928 73.3915991,64.1099779 73.9081615,64.3477157 C74.4644595,64.5854536 74.6631373,65.2194212 74.4247239,65.7741429 L56.0668903,104.802776 L56.0668903,129.329399 C56.0668903,129.923744 55.5900634,130.39922 54.9940299,130.39922 Z" id="Path" fill="#000000"></path>
                                <g transform="translate(34.569947, 58.642007)" id="Path">
                                    <line x1="1.15233155" y1="1.26793529" x2="1.15233155" y2="12.0057622" fill="#FFFFFF"></line>
                                    <path d="M1.15233155,13.1152056 C0.55629799,13.1152056 0.0794711414,12.6397299 0.0794711414,12.0453852 L0.0794711414,1.30755826 C0.0794711414,0.713213598 0.55629799,0.237737866 1.15233155,0.237737866 C1.74836511,0.237737866 2.22519196,0.713213598 2.22519196,1.30755826 L2.22519196,12.0453852 C2.22519196,12.6001069 1.74836511,13.1152056 1.15233155,13.1152056 Z" fill="#000000"></path>
                                </g>
                                <g transform="translate(43.709128, 58.642007)" id="Path">
                                    <line x1="1.23180269" y1="1.26793529" x2="1.23180269" y2="12.0057622" fill="#FFFFFF"></line>
                                    <path d="M1.23180269,13.1152056 C0.635769131,13.1152056 0.158942283,12.6397299 0.158942283,12.0453852 L0.158942283,1.30755826 C0.158942283,0.713213598 0.635769131,0.237737866 1.23180269,0.237737866 C1.82783625,0.237737866 2.3046631,0.713213598 2.3046631,1.30755826 L2.3046631,12.0453852 C2.3046631,12.6001069 1.82783625,13.1152056 1.23180269,13.1152056 Z" fill="#000000"></path>
                                </g>
                                <g transform="translate(52.848309, 58.642007)" id="Path">
                                    <line x1="1.31127383" y1="1.26793529" x2="1.31127383" y2="12.0057622" fill="#FFFFFF"></line>
                                    <path d="M1.31127383,13.1152056 C0.715240273,13.1152056 0.238413424,12.6397299 0.238413424,12.0453852 L0.238413424,1.30755826 C0.238413424,0.713213598 0.715240273,0.237737866 1.31127383,0.237737866 C1.90730739,0.237737866 2.38413424,0.713213598 2.38413424,1.30755826 L2.38413424,12.0453852 C2.38413424,12.6001069 1.90730739,13.1152056 1.31127383,13.1152056 Z" fill="#000000"></path>
                                </g>
                                <g transform="translate(61.987490, 58.642007)" id="Path">
                                    <line x1="1.39074497" y1="1.26793529" x2="1.39074497" y2="12.0057622" fill="#FFFFFF"></line>
                                    <path d="M1.39074497,13.1152056 C0.794711414,13.1152056 0.317884566,12.6397299 0.317884566,12.0453852 L0.317884566,1.30755826 C0.317884566,0.713213598 0.794711414,0.237737866 1.39074497,0.237737866 C1.98677854,0.237737866 2.46360538,0.713213598 2.46360538,1.30755826 L2.46360538,12.0453852 C2.46360538,12.6001069 1.98677854,13.1152056 1.39074497,13.1152056 Z" fill="#000000"></path>
                                </g>
                            </g>
                            <path d="M72.199532,20.3662105 C71.6034984,20.3662105 71.1266716,19.8907348 71.1266716,19.2963901 L71.1266716,1.4264272 C71.1266716,0.832082531 71.6034984,0.356606799 72.199532,0.356606799 C72.7955655,0.356606799 73.2723924,0.832082531 73.2723924,1.4264272 L73.2723924,19.2963901 C73.2723924,19.8907348 72.7955655,20.3662105 72.199532,20.3662105 Z" id="Path" fill="#000000"></path>
                            <path d="M38.8613881,31.1436604 C38.5435036,31.1436604 38.1858834,30.9851685 37.9872056,30.7078077 L27.4572794,16.2454208 C27.0996592,15.7699451 27.2188659,15.0963545 27.6956928,14.7397477 C28.1725196,14.3831409 28.8480243,14.5020098 29.2056445,14.9774856 L39.7355707,29.4398724 C40.0931908,29.9153481 39.9739841,30.5889388 39.4971573,30.9455456 C39.2984794,31.1040375 39.0998016,31.1436604 38.8613881,31.1436604 Z" id="Path" fill="#000000"></path>
                            <path d="M18.2783625,59.4344665 C18.1591558,59.4344665 18.0399491,59.4344665 17.960478,59.3948435 L0.913918126,53.8872496 C0.357620136,53.6891347 0.0397355707,53.0947901 0.238413424,52.5400684 C0.437091278,51.9853467 1.03312484,51.6683629 1.58942283,51.8664778 L18.6359827,57.3740717 C19.1922806,57.5721866 19.5101652,58.1665312 19.3114874,58.7212529 C19.1525451,59.1571057 18.7154538,59.4344665 18.2783625,59.4344665 Z" id="Path" fill="#000000"></path>
                            <path d="M1.23180269,99.8895267 C0.794711414,99.8895267 0.357620136,99.6121659 0.198677854,99.1366901 C0,98.5819684 0.317884566,97.9480008 0.874182555,97.7895089 L17.9207424,92.281915 C18.4770404,92.0838001 19.1128095,92.4007839 19.2717518,92.9555056 C19.4704296,93.5102273 19.1525451,94.1441949 18.5962471,94.3026869 L1.54968726,99.8499037 C1.43048055,99.8895267 1.31127383,99.8895267 1.23180269,99.8895267 Z" id="Path" fill="#000000"></path>
                            <path d="M143.167261,99.8895267 C143.048055,99.8895267 142.928848,99.8895267 142.849377,99.8499037 L125.802817,94.3423098 C125.246519,94.1441949 124.928634,93.5498503 125.127312,92.9951286 C125.32599,92.4404069 125.922024,92.1234231 126.478322,92.321538 L143.524881,97.8291319 C144.081179,98.0272468 144.399064,98.6215914 144.200386,99.1763131 C144.041444,99.6121659 143.644088,99.8895267 143.167261,99.8895267 Z" id="Path" fill="#000000"></path>
                            <path d="M126.120701,59.4344665 C125.68361,59.4344665 125.246519,59.1571057 125.087577,58.6816299 C124.888899,58.1269082 125.206783,57.4929406 125.763081,57.3344487 L142.809641,51.8268548 C143.365939,51.6287399 144.001708,51.9457237 144.160651,52.5004454 C144.359328,53.0551671 144.041444,53.6891347 143.485146,53.8476267 L126.438586,59.3552205 C126.359115,59.3948435 126.239908,59.4344665 126.120701,59.4344665 Z" id="Path" fill="#000000"></path>
                            <path d="M105.537676,31.1436604 C105.299262,31.1436604 105.100585,31.0644145 104.901907,30.9455456 C104.42508,30.5889388 104.305873,29.9153481 104.663493,29.4398724 L115.193419,14.9774856 C115.55104,14.5020098 116.226544,14.3831409 116.703371,14.7397477 C117.180198,15.0963545 117.299405,15.7699451 116.941785,16.2454208 L106.411858,30.7078077 C106.173445,30.9851685 105.85556,31.1436604 105.537676,31.1436604 Z" id="Path" fill="#000000"></path>
                        </g>
                        <g transform="translate(60.795423, 133.529435)" id="Path">
                            <path d="M1.3510094,83.445991 L1.3510094,121.999148 L46.0137909,121.999148 L46.0137909,94.064949 L46.0137909,74.9666738 L46.0137909,74.7685589 L46.0137909,28.5681669 L46.0137909,9.46989166 C46.0137909,4.87362625 42.2786472,1.10944337 37.6295855,1.10944337 C37.5103787,1.10944337 37.4309076,1.14906635 37.3514365,1.14906635 C37.2322297,1.14906635 37.1527586,1.10944337 37.0732875,1.10944337 L17.6425934,1.10944337 C13.7087719,1.10944337 10.4901907,4.27928159 10.4901907,8.24157936 C10.4901907,12.1642541 13.7087719,15.3737153 17.6425934,15.3737153 L29.3248512,15.3737153 L29.3248512,28.5681669 C24.6757894,30.232332 20.6624968,33.2833012 17.7618001,37.205976 C14.7418967,41.2871427 12.953796,46.3192609 12.953796,51.7872318 C12.953796,61.6929762 18.8346605,70.2119164 27.2983371,74.1345912 C27.7751639,74.3723291 28.2519908,74.570444 28.7685532,74.7685589 L29.3248512,74.7685589 L29.3248512,74.9666738 C29.1261733,74.8874278 28.9274955,74.8478048 28.7685532,74.7685589" fill="#FFE8D8"></path>
                            <path d="M46.0137909,123.068969 L1.3510094,123.068969 C0.754975843,123.068969 0.278148995,122.593493 0.278148995,121.999148 L0.278148995,83.445991 C0.278148995,82.8516463 0.754975843,82.3761706 1.3510094,82.3761706 C1.94704296,82.3761706 2.42386981,82.8516463 2.42386981,83.445991 L2.42386981,120.929328 L44.9409305,120.929328 L44.9409305,9.46989166 C44.9409305,5.46797092 41.6826137,2.17926377 37.6295855,2.17926377 C37.5501143,2.17926377 37.4706432,2.21888675 37.391172,2.21888675 C37.3514365,2.21888675 37.113023,2.21888675 37.0732875,2.17926377 L17.6425934,2.17926377 C14.3048055,2.17926377 11.5630511,4.87362625 11.5630511,8.24157936 C11.5630511,11.5699095 14.3048055,14.3038949 17.6425934,14.3038949 L29.3248512,14.3038949 C29.9208847,14.3038949 30.3977116,14.7793707 30.3977116,15.3737153 L30.3977116,28.5681669 C30.3977116,29.0040197 30.1195626,29.4398724 29.6824713,29.5983643 C25.2320874,31.1832834 21.4174726,34.0361378 18.6359827,37.8399437 C15.6160793,41.9211104 14.0266565,46.7154907 14.0266565,51.7872318 C14.0266565,60.9005167 19.3909585,69.3005879 27.7354283,73.1440168 C28.1327841,73.3421317 28.5301398,73.5006236 28.9274955,73.6591155 L29.2851156,73.6591155 C29.8811492,73.6591155 30.357976,74.1345912 30.357976,74.7289359 C30.357976,75.0855427 30.1990337,75.4817725 29.9208847,75.7195103 C29.6427357,75.9176252 29.2851156,76.0761171 28.967231,75.9572482 C28.7685532,75.8780022 28.5698753,75.7987563 28.3314619,75.7195103 C27.8148995,75.5213954 27.2983371,75.2836576 26.8215102,75.0855427 C17.7220645,70.8855071 11.8809356,61.7325992 11.8809356,51.7476088 C11.8809356,46.2400149 13.6293008,40.9701589 16.8876175,36.5323854 C19.7883142,32.6097106 23.6824001,29.5983643 28.2122552,27.8153303 L28.2122552,16.4435357 L17.6425934,16.4435357 C13.1127383,16.4435357 9.41733026,12.7585988 9.41733026,8.24157936 C9.41733026,3.7245599 13.1127383,0.0396229777 17.6425934,0.0396229777 L37.0732875,0.0396229777 C37.113023,0.0396229777 37.3514365,0.0396229777 37.391172,0.0792459553 C37.4706432,0.0792459553 37.5501143,0.0396229777 37.669321,0.0396229777 C42.8746808,0.0396229777 47.1263869,4.27928159 47.1263869,9.46989166 L47.1263869,121.999148 C47.0866513,122.593493 46.6098244,123.068969 46.0137909,123.068969 Z" fill="#000000"></path>
                        </g>
                        <g transform="translate(27.020188, 145.812558)">
                            <path d="M31.3513653,8.36044829 C31.3513653,12.2831231 28.1725196,15.4925843 24.1989626,15.4925843 L8.46367656,15.4925843 C4.52985506,15.4925843 1.31127383,12.2831231 1.31127383,8.36044829 L1.31127383,8.36044829 C1.31127383,4.4377735 4.52985506,1.22831231 8.46367656,1.22831231 L24.2386981,1.22831231 C28.1725196,1.22831231 31.3513653,4.4377735 31.3513653,8.36044829 L31.3513653,8.36044829 Z" id="Path" fill="#FFE8D8"></path>
                            <path d="M24.2386981,16.5624047 L8.50341213,16.5624047 C3.97355707,16.5624047 0.278148995,12.8774677 0.278148995,8.36044829 C0.278148995,3.84342883 3.97355707,0.158491911 8.50341213,0.158491911 L24.2386981,0.158491911 C28.7685532,0.158491911 32.4639613,3.84342883 32.4639613,8.36044829 C32.4242257,12.8774677 28.7685532,16.5624047 24.2386981,16.5624047 Z M8.50341213,2.2981327 C5.16562419,2.2981327 2.42386981,5.03211816 2.42386981,8.36044829 C2.42386981,11.6887784 5.12588862,14.4227639 8.50341213,14.4227639 L24.2386981,14.4227639 C27.5764861,14.4227639 30.3182404,11.6887784 30.3182404,8.36044829 C30.3182404,5.03211816 27.6162216,2.2981327 24.2386981,2.2981327 L8.50341213,2.2981327 Z" id="Shape" fill="#000000"></path>
                        </g>
                        <g transform="translate(30.199034, 131.548286)">
                            <path d="M23.3645156,8.36044829 C23.3645156,12.2831231 20.1459343,15.4925843 16.2121128,15.4925843 L8.34446985,15.4925843 C4.41064835,15.4925843 1.19206712,12.2831231 1.19206712,8.36044829 L1.19206712,8.36044829 C1.19206712,4.4377735 4.41064835,1.22831231 8.34446985,1.22831231 L16.2518484,1.22831231 C20.1856699,1.22831231 23.3645156,4.4377735 23.3645156,8.36044829 L23.3645156,8.36044829 Z" id="Path" fill="#FFE8D8"></path>
                            <path d="M16.2121128,16.5624047 L8.34446985,16.5624047 C3.81461479,16.5624047 0.119206712,12.8774677 0.119206712,8.36044829 C0.119206712,3.84342883 3.81461479,0.158491911 8.34446985,0.158491911 L16.2518484,0.158491911 C20.7817035,0.158491911 24.4771116,3.84342883 24.4771116,8.36044829 C24.437376,12.8774677 20.7817035,16.5624047 16.2121128,16.5624047 Z M8.34446985,2.2981327 C5.00668191,2.2981327 2.26492753,5.03211816 2.26492753,8.36044829 C2.26492753,11.6887784 5.00668191,14.4227639 8.34446985,14.4227639 L16.2518484,14.4227639 C19.5896364,14.4227639 22.3313907,11.6887784 22.3313907,8.36044829 C22.3313907,5.03211816 19.5896364,2.2981327 16.2518484,2.2981327 L8.34446985,2.2981327 Z" id="Shape" fill="#000000"></path>
                        </g>
                        <g transform="translate(28.212255, 160.076830)">
                            <path d="M23.4042511,8.36044829 C23.4042511,12.2831231 20.1856699,15.4925843 16.2518484,15.4925843 L8.34446985,15.4925843 C4.41064835,15.4925843 1.19206712,12.2831231 1.19206712,8.36044829 L1.19206712,8.36044829 C1.19206712,4.4377735 4.41064835,1.22831231 8.34446985,1.22831231 L16.2518484,1.22831231 C20.1856699,1.22831231 23.4042511,4.39815052 23.4042511,8.36044829 L23.4042511,8.36044829 Z" id="Path" fill="#FFE8D8"></path>
                            <path d="M16.2518484,16.5624047 L8.34446985,16.5624047 C3.81461479,16.5624047 0.119206712,12.8774677 0.119206712,8.36044829 C0.119206712,3.84342883 3.81461479,0.158491911 8.34446985,0.158491911 L16.2518484,0.158491911 C20.7817035,0.158491911 24.4771116,3.84342883 24.4771116,8.36044829 C24.4771116,12.8774677 20.7817035,16.5624047 16.2518484,16.5624047 Z M8.34446985,2.2981327 C5.00668191,2.2981327 2.26492753,5.03211816 2.26492753,8.36044829 C2.26492753,11.6887784 5.00668191,14.4227639 8.34446985,14.4227639 L16.2518484,14.4227639 C19.5896364,14.4227639 22.3313907,11.6887784 22.3313907,8.36044829 C22.3313907,5.03211816 19.5896364,2.2981327 16.2518484,2.2981327 L8.34446985,2.2981327 Z" id="Shape" fill="#000000"></path>
                        </g>
                        <g transform="translate(30.199034, 174.341102)">
                            <path d="M19.4306941,8.32082531 C19.4306941,12.2435001 16.2121128,15.4529613 12.2782913,15.4529613 L8.34446985,15.4529613 C4.41064835,15.4529613 1.19206712,12.2831231 1.19206712,8.32082531 L1.19206712,8.32082531 C1.19206712,4.39815052 4.41064835,1.18868933 8.34446985,1.18868933 L12.2782913,1.18868933 C16.2121128,1.22831231 19.4306941,4.39815052 19.4306941,8.32082531 L19.4306941,8.32082531 Z" id="Path" fill="#FFE8D8"></path>
                            <path d="M12.2782913,16.5227817 L8.34446985,16.5227817 C3.81461479,16.5227817 0.119206712,12.8378448 0.119206712,8.32082531 C0.119206712,3.80380586 3.81461479,0.118868933 8.34446985,0.118868933 L12.2782913,0.118868933 C16.8081464,0.118868933 20.5035545,3.80380586 20.5035545,8.32082531 C20.5035545,12.8774677 16.8081464,16.5227817 12.2782913,16.5227817 Z M8.34446985,2.2981327 C5.00668191,2.2981327 2.26492753,5.03211816 2.26492753,8.36044829 C2.26492753,11.6887784 5.00668191,14.4227639 8.34446985,14.4227639 L12.2782913,14.4227639 C15.6160793,14.4227639 18.3578337,11.6887784 18.3578337,8.36044829 C18.3578337,5.03211816 15.6558149,2.2981327 12.2782913,2.2981327 L8.34446985,2.2981327 Z" id="Shape" fill="#000000"></path>
                        </g>
                    </g>
                    <g transform="translate(0.000000, 220.303756)">
                        <polygon id="Path" fill="#65CAEB" points="29.4837935 1.38680422 87.9745535 21.9907526 59.9212406 38.7908951 29.4837935 28.0926912 1.43048055 18.1869468"></polygon>
                        <path d="M59.9212406,39.8607155 C59.8020339,39.8607155 59.6828272,39.8210926 59.5636205,39.7814696 L1.07286041,19.1775212 C0.675504702,19.0586523 0.397355707,18.7020455 0.357620136,18.2661927 C0.317884566,17.8699629 0.516562419,17.4341102 0.874182555,17.2359953 L28.9274955,0.435852754 C29.2056445,0.277360844 29.523529,0.237737866 29.8414136,0.356606799 L88.3321737,20.9605552 C88.7295294,21.0794241 89.0076784,21.4360309 89.0474139,21.8718837 C89.0871495,22.2681135 88.8884717,22.7039662 88.5308515,22.9020811 L60.4775386,39.7022236 C60.2788608,39.8210926 60.1199185,39.8607155 59.9212406,39.8607155 Z M3.9338215,17.9492089 L59.7622983,37.6418288 L85.431477,22.2681135 L29.6030002,2.57549355 L3.9338215,17.9492089 Z" id="Shape" fill="#000000"></path>
                    </g>
                    <g transform="translate(28.212255, 240.907704)">
                        <polygon id="Path" fill="#63C5E6" points="31.7089854 18.1869468 59.7622983 1.38680422 59.7622983 70.0930475 1.27153826 49.4890991 1.27153826 7.48874278"></polygon>
                        <path d="M59.7622983,71.1628679 C59.6430916,71.1628679 59.5238849,71.1628679 59.4046782,71.0836219 L0.913918126,50.4796736 C0.476826848,50.3211816 0.198677854,49.9249519 0.198677854,49.4494761 L0.198677854,7.4491198 C0.198677854,7.092513 0.357620136,6.77552918 0.635769131,6.57741429 C0.913918126,6.3792994 1.27153826,6.33967643 1.6291584,6.45854536 L31.5500431,16.9982574 L59.1662648,0.475475732 C59.4841493,0.277360844 59.9212406,0.277360844 60.2391252,0.475475732 C60.5967453,0.67359062 60.7954232,1.03019742 60.7954232,1.4264272 L60.7954232,70.0930475 C60.7954232,70.4496543 60.6364809,70.7666381 60.3583319,70.964753 C60.1993896,71.0836219 60.0007118,71.1628679 59.7622983,71.1628679 Z M2.38413424,48.6966396 L58.6894379,68.5477514 L58.6894379,3.28870715 L32.2652834,19.0982752 C31.9871344,19.2567671 31.6692498,19.2963901 31.3513653,19.1775212 L2.38413424,8.99441593 L2.38413424,48.6966396 Z" id="Shape" fill="#000000"></path>
                    </g>
                    <g transform="translate(86.623544, 208.813092)">
                        <polygon id="Path" fill="#5AB4D1" points="24.1989626 12.8774677 57.7755198 8.79630104 108.27943 2.6547395 118.213323 1.4264272 95.3653697 22.0303756 1.3510094 33.4814161"></polygon>
                        <path d="M1.3510094,34.5512365 C0.913918126,34.5512365 0.55629799,34.3134987 0.357620136,33.9172689 C0.158942283,33.4814161 0.278148995,33.0059404 0.596033561,32.6889566 L23.4439867,12.0850082 C23.602929,11.9265163 23.8016069,11.8472703 24.0400203,11.8076473 L118.054381,0.356606799 C118.531207,0.277360844 118.968299,0.554721687 119.166977,0.990574442 C119.365654,1.4264272 119.246448,1.90190293 118.928563,2.21888675 L96.08061,22.8228351 C95.9216677,22.981327 95.7229898,23.060573 95.4845764,23.100196 L1.47021612,34.5512365 C1.43048055,34.5512365 1.39074497,34.5512365 1.3510094,34.5512365 Z M24.6757894,13.9076652 L4.6093262,32.015366 L94.8885428,21.0001782 L114.955006,2.89247737 L24.6757894,13.9076652 Z" id="Shape" fill="#000000"></path>
                    </g>
                    <g transform="translate(86.623544, 229.417041)">
                        <polygon id="Path" fill="#5FBDDC" points="95.3653697 1.4264272 95.3653697 70.1326705 1.3510094 81.583711 1.3510094 12.8774677"></polygon>
                        <path d="M1.3510094,82.6535314 C1.07286041,82.6535314 0.834446985,82.5742855 0.635769131,82.3761706 C0.397355707,82.1780557 0.278148995,81.8610719 0.278148995,81.583711 L0.278148995,12.8774677 C0.278148995,12.3227461 0.675504702,11.8868933 1.23180269,11.8076473 L95.246163,0.356606799 C95.5640475,0.316983821 95.8421965,0.396229777 96.08061,0.633967643 C96.3190234,0.832082531 96.4382301,1.14906635 96.4382301,1.4264272 L96.4382301,70.1326705 C96.4382301,70.6873922 96.0408744,71.1232449 95.4845764,71.2024909 L1.47021612,82.6535314 C1.43048055,82.6535314 1.39074497,82.6535314 1.3510094,82.6535314 Z M2.42386981,13.8284192 L2.42386981,80.3553987 L94.2925093,69.181719 L94.2925093,2.6547395 L2.42386981,13.8284192 Z" id="Shape" fill="#000000"></path>
                    </g>
                </g>
                <g id="Group" transform="translate(308.000000, 129.000000)">
                    <path d="M60.9603896,64.4304348 C36.5207792,64.4304348 13.9032468,54.2342391 0.554545455,37.0951087 C0.237662338,36.6983696 0.237662338,36.1429348 0.554545455,35.7858696 C13.9428571,18.686413 36.5207792,8.45054348 60.9603896,8.45054348 C85.4396104,8.45054348 108.017532,18.6467391 121.405844,35.7858696 C121.722727,36.1826087 121.722727,36.7380435 121.405844,37.0951087 C108.017532,54.1945652 85.4396104,64.4304348 60.9603896,64.4304348 Z M2.77272727,36.4206522 C15.8045455,52.6076087 37.511039,62.2483696 60.9603896,62.2483696 C84.4493506,62.2483696 106.155844,52.6076087 119.187662,36.4206522 C106.155844,20.2336957 84.4493506,10.5929348 60.9603896,10.5929348 C37.4714286,10.5929348 15.8045455,20.2336957 2.77272727,36.4206522 Z" id="Shape" fill="#000000"></path>
                    <g transform="translate(24.558442, 0.000000)">
                        <path d="M71.575974,36.4206522 C71.575974,55.8608696 55.8506494,71.651087 36.4019481,71.651087 C16.9928571,71.651087 1.22792208,55.9005435 1.22792208,36.4206522 C1.22792208,16.9804348 16.9532468,1.19021739 36.4019481,1.19021739 C55.811039,1.2298913 71.575974,16.9804348 71.575974,36.4206522 Z" id="Path" fill="#65CAEB"></path>
                        <path d="M36.4019481,72.7222826 C16.4383117,72.7222826 0.158441558,56.4559783 0.158441558,36.4206522 C0.158441558,16.425 16.3987013,0.119021739 36.4019481,0.119021739 C56.4051948,0.119021739 72.6454545,16.3853261 72.6454545,36.4206522 C72.6454545,56.4559783 56.4051948,72.7222826 36.4019481,72.7222826 Z M36.4019481,2.30108696 C17.587013,2.30108696 2.2974026,17.6152174 2.2974026,36.4603261 C2.2974026,55.3054348 17.587013,70.6195652 36.4019481,70.6195652 C55.2168831,70.6195652 70.5064935,55.3054348 70.5064935,36.4603261 C70.5064935,17.6152174 55.2168831,2.30108696 36.4019481,2.30108696 Z" id="Shape" fill="#000000"></path>
                    </g>
                    <g transform="translate(44.759740, 20.233696)">
                        <path d="M31.1337662,16.1869565 C31.1337662,24.4391304 24.4396104,31.1440217 16.2006494,31.1440217 C7.96168831,31.1440217 1.26753247,24.4391304 1.26753247,16.1869565 C1.26753247,7.93478261 7.96168831,1.2298913 16.2006494,1.2298913 C24.4396104,1.2298913 31.1337662,7.97445652 31.1337662,16.1869565 Z" id="Path" fill="#939598"></path>
                        <path d="M16.2006494,32.2152174 C7.36753247,32.2152174 0.198051948,25.0342391 0.198051948,16.1869565 C0.198051948,7.33967391 7.36753247,0.158695652 16.2006494,0.158695652 C25.0337662,0.158695652 32.2032468,7.33967391 32.2032468,16.1869565 C32.2032468,25.0342391 25.0337662,32.2152174 16.2006494,32.2152174 Z M16.2006494,2.34076087 C8.55584416,2.34076087 2.33701299,8.56956522 2.33701299,16.2266304 C2.33701299,23.8836957 8.55584416,30.1125 16.2006494,30.1125 C23.8454545,30.1125 30.0642857,23.8836957 30.0642857,16.2266304 C30.0642857,8.56956522 23.8454545,2.34076087 16.2006494,2.34076087 Z" id="Shape" fill="#000000"></path>
                    </g>
                </g>
                <g id="Group" transform="translate(374.000000, 207.000000)">
                    <path d="M74.88,69.4578947 L58.6,69.4578947 C58.24,69.4578947 57.92,69.2984962 57.72,69.0195489 C55.52,65.9909774 52,64.1578947 48.32,64.1578947 C44.6,64.1578947 41.08,65.9511278 38.92,69.0195489 C38.72,69.2984962 38.4,69.4578947 38.04,69.4578947 L1.16,69.4578947 C0.56,69.4578947 0.08,68.9796992 0.08,68.3819549 C0.08,68.1428571 0.04,68.0631579 0.04,67.943609 C0.04,51.4857143 10.48,37.1398496 26.08,31.9992481 L26.08,1.31503759 C26.08,0.717293233 26.56,0.239097744 27.16,0.239097744 L48.88,0.239097744 C49.48,0.239097744 49.96,0.717293233 49.96,1.31503759 L49.96,31.9992481 C65.56,37.1398496 76,51.4857143 76,67.943609 C76,68.0631579 76,68.1428571 76,68.262406 C75.92,68.8203008 75.44,69.4578947 74.88,69.4578947 Z M59.16,67.2661654 L73.8,67.2661654 C73.48,51.6849624 63.4,38.375188 48.52,33.8323308 C48.08,33.712782 47.76,33.2744361 47.76,32.7962406 L47.76,2.43082707 L28.24,2.43082707 L28.24,32.7962406 C28.24,33.2744361 27.92,33.6729323 27.48,33.8323308 C12.56,38.4150376 2.48,51.8045113 2.2,67.2661654 L37.48,67.2661654 C40.08,63.9586466 44.12,61.9661654 48.32,61.9661654 C52.52,61.9661654 56.56,63.9586466 59.16,67.2661654 Z M28.44,57.343609 C24.96,57.343609 22.16,54.5142857 22.16,51.087218 C22.16,47.6203008 25,44.8308271 28.44,44.8308271 C31.88,44.8308271 34.72,47.6601504 34.72,51.087218 C34.76,54.5142857 31.92,57.343609 28.44,57.343609 Z M28.44,46.9428571 C26.16,46.9428571 24.32,48.7759398 24.32,51.0473684 C24.32,53.318797 26.16,55.1518797 28.44,55.1518797 C30.72,55.1518797 32.56,53.318797 32.56,51.0473684 C32.6,48.8157895 30.72,46.9428571 28.44,46.9428571 Z" id="Shape" fill="#000000"></path>
                    <g transform="translate(0.000000, 61.766917)">
                        <path d="M58.6,6.57518797 C56.28,3.38721805 52.56,1.27518797 48.32,1.27518797 C44.08,1.27518797 40.32,3.38721805 38.04,6.57518797 L1.16,6.57518797 C1.4,26.6593985 17.8,42.9180451 38.04,42.9180451 C58.28,42.9180451 74.68,26.6992481 74.92,6.57518797 L58.6,6.57518797 Z" id="Path" fill="#FFB09C"></path>
                        <path d="M38,43.993985 C17.32,43.993985 0.28,27.2172932 0.04,6.61503759 C0.04,6.33609023 0.16,6.05714286 0.36,5.85789474 C0.56,5.65864662 0.84,5.53909774 1.12,5.53909774 L37.48,5.53909774 C40.08,2.23157895 44.12,0.239097744 48.32,0.239097744 C52.52,0.239097744 56.56,2.19172932 59.16,5.53909774 L74.88,5.53909774 C75.16,5.53909774 75.44,5.65864662 75.64,5.85789474 C75.84,6.05714286 75.96,6.33609023 75.96,6.61503759 C75.72,27.2172932 58.68,43.993985 38,43.993985 Z M2.24,7.69097744 C3.04,26.6195489 18.84,41.8421053 38,41.8421053 C57.16,41.8421053 72.96,26.6195489 73.76,7.69097744 L58.6,7.69097744 C58.24,7.69097744 57.92,7.53157895 57.72,7.25263158 C55.52,4.22406015 52,2.39097744 48.32,2.39097744 C44.6,2.39097744 41.08,4.18421053 38.92,7.25263158 C38.72,7.53157895 38.4,7.69097744 38.04,7.69097744 L2.24,7.69097744 Z" id="Shape" fill="#000000"></path>
                    </g>
                    <g transform="translate(22.000000, 44.631579)">
                        <path d="M6.44,1.23533835 C3.56,1.23533835 1.24,3.54661654 1.24,6.41578947 C1.24,9.28496241 3.56,11.5962406 6.44,11.5962406 C9.32,11.5962406 11.64,9.28496241 11.64,6.41578947 C11.68,3.58646617 9.32,1.23533835 6.44,1.23533835 Z" id="Path" fill="#FFB09C"></path>
                        <path d="M6.44,12.7120301 C2.96,12.7120301 0.16,9.88270677 0.16,6.4556391 C0.16,2.9887218 3,0.19924812 6.44,0.19924812 C9.88,0.19924812 12.72,3.02857143 12.72,6.4556391 C12.76,9.88270677 9.92,12.7120301 6.44,12.7120301 Z M6.44,2.3112782 C4.16,2.3112782 2.32,4.1443609 2.32,6.41578947 C2.32,8.68721805 4.16,10.5203008 6.44,10.5203008 C8.72,10.5203008 10.56,8.68721805 10.56,6.41578947 C10.6,4.18421053 8.72,2.3112782 6.44,2.3112782 Z" id="Shape" fill="#000000"></path>
                    </g>
                    <path d="M54.52,2.43082707 L21.52,2.43082707 C20.92,2.43082707 20.44,1.95263158 20.44,1.35488722 C20.44,0.757142857 20.92,0.278947368 21.52,0.278947368 L54.52,0.278947368 C55.12,0.278947368 55.6,0.757142857 55.6,1.35488722 C55.6,1.91278195 55.12,2.43082707 54.52,2.43082707 Z" id="Path" fill="#000000"></path>
                </g>
                <g id="Group" transform="translate(11.000000, 146.000000)">
                    <path d="M75.5202532,147.090335 C47.8082278,147.090335 25.2398734,124.607719 25.2398734,97.0009719 C25.2398734,96.4051428 25.7183544,95.9284796 26.3164557,95.9284796 C26.914557,95.9284796 27.393038,96.4051428 27.393038,97.0009719 C27.393038,123.455782 48.964557,144.945351 75.5202532,144.945351 C102.075949,144.945351 123.647468,123.455782 123.647468,97.0009719 C123.647468,70.5461614 102.075949,49.0565931 75.5202532,49.0565931 C74.9221519,49.0565931 74.4436709,48.5799298 74.4436709,47.9841008 C74.4436709,47.3882717 74.9221519,46.9116084 75.5202532,46.9116084 C103.232278,46.9116084 125.800633,69.3942252 125.800633,97.0009719 C125.800633,124.647441 103.232278,147.090335 75.5202532,147.090335 Z" id="Path" fill="#000000"></path>
                    <g transform="translate(49.044304, 9.930484)">
                        <polygon id="Path" fill="#D1D3D4" points="19.2189873 63.2373248 1.23607595 45.3227309 45.4158228 1.31082394 63.3987342 19.2254179"></polygon>
                        <path d="M19.2189873,64.3098172 C18.9398734,64.3098172 18.6607595,64.1906514 18.4613924,63.9920417 L0.478481013,46.0774478 C0.279113924,45.8788381 0.159493671,45.6007845 0.159493671,45.3227309 C0.159493671,45.0446774 0.279113924,44.7666238 0.478481013,44.5680141 L44.6582278,0.556107128 C45.0968354,0.119165813 45.7746835,0.119165813 46.1734177,0.556107128 L64.1563291,18.470701 C64.5949367,18.9076424 64.5949367,19.5829153 64.1563291,19.9801347 L19.9765823,63.9920417 C19.7772152,64.1906514 19.4981013,64.3098172 19.2189873,64.3098172 Z M2.75126582,45.3227309 L19.1791139,61.6881693 L61.8436709,19.1856959 L45.4158228,2.82025758 L2.75126582,45.3227309 Z" id="Shape" fill="#000000"></path>
                    </g>
                    <path d="M103.670886,21.4895683 C103.391772,21.4895683 103.112658,21.3704025 102.913291,21.1717928 C102.474684,20.7348515 102.474684,20.0595785 102.913291,19.6623592 L115.274051,7.34855848 C115.712658,6.91161716 116.390506,6.91161716 116.789241,7.34855848 C117.227848,7.78549979 117.227848,8.46077273 116.789241,8.85799211 L104.428481,21.1717928 C104.229114,21.3704025 103.95,21.4895683 103.670886,21.4895683 Z" id="Path" fill="#000000"></path>
                    <path d="M122.810127,15.928497 C122.531013,15.928497 122.251899,15.8093312 122.052532,15.6107215 L108.455696,2.06554076 C108.017089,1.62859945 108.017089,0.953326505 108.455696,0.556107128 C108.894304,0.119165813 109.572152,0.119165813 109.970886,0.556107128 L123.567722,14.1012879 C124.006329,14.5382292 124.006329,15.2135021 123.567722,15.6107215 C123.368354,15.8093312 123.089241,15.928497 122.810127,15.928497 Z" id="Path" fill="#000000"></path>
                    <path d="M52.114557,68.5600645 C51.835443,68.5600645 51.5563291,68.4408987 51.356962,68.242289 L46.2132911,63.118159 C45.7746835,62.6812177 45.7746835,62.0059448 46.2132911,61.6087254 L51.356962,56.4845954 C51.7556962,56.0873761 52.4734177,56.0873761 52.8721519,56.4845954 L58.0158228,61.6087254 C58.2151899,61.8073351 58.3348101,62.0853887 58.3348101,62.3634422 C58.3348101,62.6414958 58.2151899,62.9195493 58.0158228,63.118159 L52.8721519,68.242289 C52.6727848,68.4408987 52.3936709,68.5600645 52.114557,68.5600645 Z M48.5259494,62.3634422 L52.114557,65.9384166 L55.7031646,62.3634422 L52.114557,58.7884678 L48.5259494,62.3634422 Z" id="Shape" fill="#000000"></path>
                    <path d="M61.0462025,77.2591689 C60.7670886,77.2591689 60.4879747,77.1400031 60.2886076,76.9413934 L55.1449367,71.8172634 C54.9455696,71.6186537 54.8259494,71.3406001 54.8259494,71.0625466 C54.8259494,70.784493 54.9455696,70.5064395 55.1449367,70.3078298 L60.2886076,65.1836998 C60.4879747,64.9850901 60.7670886,64.8659243 61.0462025,64.8659243 L61.0462025,64.8659243 C61.3253165,64.8659243 61.6044304,64.9850901 61.8037975,65.1836998 L66.9474684,70.3078298 C67.3860759,70.7447711 67.3860759,71.420044 66.9474684,71.8172634 L61.8037975,76.9413934 C61.564557,77.1400031 61.3253165,77.2591689 61.0462025,77.2591689 Z M57.4177215,71.0625466 L61.0063291,74.637521 L64.5949367,71.0625466 L61.0063291,67.4478502 L57.4177215,71.0625466 Z" id="Shape" fill="#000000"></path>
                    <path d="M51.2373418,98.0734642 L1.3556962,98.0734642 C0.757594937,98.0734642 0.279113924,97.596801 0.279113924,97.0009719 C0.279113924,96.4051428 0.757594937,95.9284796 1.3556962,95.9284796 L51.2373418,95.9284796 C51.835443,95.9284796 52.3139241,96.4051428 52.3139241,97.0009719 C52.3139241,97.596801 51.835443,98.0734642 51.2373418,98.0734642 Z" id="Path" fill="#000000"></path>
                    <g transform="translate(39.873418, 131.479614)">
                        <path d="M69.9379747,34.43892 C69.2601266,16.0873848 54.2278481,1.42998976 35.6468354,1.42998976 C17.0658228,1.42998976 2.0335443,16.1271067 1.3556962,34.43892 L69.9379747,34.43892 Z" id="Path" fill="#E6E7E8"></path>
                        <path d="M69.9379747,35.5114123 L1.3556962,35.5114123 C1.07658228,35.5114123 0.797468354,35.3922465 0.558227848,35.1936368 C0.358860759,34.9950271 0.239240506,34.7169736 0.239240506,34.3991981 C0.956962025,15.292946 16.5075949,0.357497439 35.606962,0.357497439 C54.7462025,0.357497439 70.256962,15.332668 70.9746835,34.3991981 C70.9746835,34.6772516 70.8949367,34.9950271 70.6556962,35.1936368 C70.4962025,35.3922465 70.2170886,35.5114123 69.9379747,35.5114123 Z M2.4721519,33.3664277 L68.7816456,33.3664277 C67.5455696,15.968219 53.1911392,2.50248208 35.6468354,2.50248208 C18.0626582,2.50248208 3.70822785,15.968219 2.4721519,33.3664277 Z" id="Shape" fill="#000000"></path>
                    </g>
                    <path d="M121.33481,166.991026 L29.6658228,166.991026 C29.0677215,166.991026 28.5892405,166.514363 28.5892405,165.918534 C28.5892405,165.322705 29.0677215,164.846042 29.6658228,164.846042 L121.294937,164.846042 C121.893038,164.846042 122.371519,165.322705 122.371519,165.918534 C122.411392,166.514363 121.932911,166.991026 121.33481,166.991026 Z" id="Path" fill="#000000"></path>
                </g>
                <g id="Group" transform="translate(461.000000, 192.000000)">
                    <polygon id="Path" fill="#FFD754" points="35.6870968 30.9078947 18.5397849 1.42105263 1.39247312 30.9078947 9.42903226 30.9078947 9.42903226 118.697368 27.6107527 118.697368 27.6107527 30.9078947"></polygon>
                    <path d="M27.6107527,119.763158 L9.4688172,119.763158 C8.87204301,119.763158 8.39462366,119.289474 8.39462366,118.697368 L8.39462366,31.9736842 L1.39247312,31.9736842 C0.994623656,31.9736842 0.63655914,31.7763158 0.437634409,31.4210526 C0.238709677,31.1052632 0.238709677,30.6710526 0.437634409,30.3552632 L17.5849462,0.868421053 C17.9827957,0.197368421 19.0569892,0.197368421 19.4548387,0.868421053 L36.6021505,30.3552632 C36.8010753,30.6710526 36.8010753,31.1052632 36.6021505,31.4210526 C36.4032258,31.7368421 36.0451613,31.9736842 35.6473118,31.9736842 L28.6451613,31.9736842 L28.6451613,118.697368 C28.6849462,119.289474 28.2075269,119.763158 27.6107527,119.763158 Z M10.5430108,117.631579 L26.5365591,117.631579 L26.5365591,30.9078947 C26.5365591,30.3157895 27.0139785,29.8421053 27.6107527,29.8421053 L33.8172043,29.8421053 L18.5397849,3.59210526 L3.26236559,29.8421053 L9.4688172,29.8421053 C10.0655914,29.8421053 10.5430108,30.3157895 10.5430108,30.9078947 L10.5430108,117.631579 L10.5430108,117.631579 Z" id="Shape" fill="#000000"></path>
                </g>
                <path d="M102.336772,46 C102.137804,46 101.978629,45.9611136 101.779661,45.8444543 C101.461312,45.6500221 101.22255,45.3000442 101.22255,44.9111798 L101.22255,41.2947415 L68.0744289,41.2947415 C67.4775239,41.2947415 67,40.8281043 67,40.2448078 C67,39.6615113 67.4775239,39.1948741 68.0744289,39.1948741 L102.336772,39.1948741 C102.933677,39.1948741 103.411201,39.6615113 103.411201,40.2448078 L103.411201,43.0835175 L117.697126,34.9951392 L103.411201,26.9067609 L103.411201,29.7454706 C103.411201,30.3287671 102.933677,30.7954043 102.336772,30.7954043 L68.0744289,30.7954043 C67.4775239,30.7954043 67,30.3287671 67,29.7454706 C67,29.1621741 67.4775239,28.6955369 68.0744289,28.6955369 L101.262343,28.6955369 L101.262343,25.0790985 C101.262343,24.6902342 101.461312,24.3402563 101.819455,24.1458241 C102.137804,23.951392 102.575534,23.951392 102.893884,24.1458241 L120.442889,34.0618648 C120.761238,34.256297 121,34.6062749 121,34.9951392 C121,35.3840035 120.801032,35.7339814 120.442889,35.9284136 L102.893884,45.8444543 C102.734709,45.9611136 102.535741,46 102.336772,46 Z" id="Path" fill="#000000"></path>
                <g id="Group" transform="translate(328.000000, 0.000000)">
                    <g>
                        <polygon id="Path" fill="#FFB09C" points="1.43166023 1.23314917 22.2305019 33.2552486 101.647876 18.5370166"></polygon>
                        <path d="M22.2305019,34.3292818 C21.8725869,34.3292818 21.5146718,34.1303867 21.3158301,33.8519337 L0.516988417,1.82983425 C0.278378378,1.4718232 0.278378378,0.994475138 0.516988417,0.636464088 C0.755598456,0.278453039 1.19305019,0.079558011 1.59073359,0.159116022 L101.80695,17.4629834 C102.323938,17.5425414 102.681853,17.9801105 102.721622,18.5370166 C102.76139,19.0939227 102.363707,19.4917127 101.846718,19.6110497 L22.4293436,34.2895028 C22.3498069,34.3292818 22.3100386,34.3292818 22.2305019,34.3292818 Z M3.6984556,2.70497238 L22.7474903,32.0618785 L95.5235521,18.5767956 L3.6984556,2.70497238 Z" id="Shape" fill="#000000"></path>
                    </g>
                    <g transform="translate(13.123552, 17.502762)">
                        <polygon id="Path" fill="#F5A896" points="88.5243243 1.03425414 9.10694981 15.7524862 1.15328185 53.0651934"></polygon>
                        <path d="M1.15328185,54.1790055 C0.914671815,54.1790055 0.715830116,54.0994475 0.516988417,53.9801105 C0.159073359,53.7414365 -1.32532874e-15,53.3038674 0.0795366795,52.8662983 L8.07297297,15.5535912 C8.15250965,15.1160221 8.51042471,14.7977901 8.94787645,14.718232 L88.365251,0.0397790055 C88.8822394,-0.0397790055 89.3992278,0.238674033 89.5583012,0.716022099 C89.7571429,1.19337017 89.5583012,1.75027624 89.1208494,2.02872928 L1.67027027,54.0198895 C1.51119691,54.0994475 1.31235521,54.1790055 1.15328185,54.1790055 Z M10.0216216,16.6674033 L2.7042471,50.8773481 L82.7976834,3.18232044 L10.0216216,16.6674033 Z" id="Shape" fill="#000000"></path>
                    </g>
                </g>
                <g id="Group" transform="translate(269.000000, 32.000000)" fill="#000000">
                    <path d="M7.54182692,99.7233202 C7.50192308,99.7233202 7.50192308,99.7233202 7.46201923,99.7233202 C5.34711538,99.5652174 3.15240385,99.3675889 0.957692308,99.0909091 C0.359134615,99.0118577 -0.0399038462,98.4980237 0.0399038462,97.9051383 C0.119711538,97.312253 0.638461538,96.916996 1.23701923,96.9565217 C3.39182692,97.2332016 5.54663462,97.43083 7.62163462,97.5889328 C8.22019231,97.6284585 8.65913462,98.1422925 8.61923077,98.7351779 C8.57932692,99.2885375 8.10048077,99.7233202 7.54182692,99.7233202 Z" id="Path"></path>
                    <path d="M14.6447115,99.9604743 C13.7269231,99.9604743 12.7692308,99.9604743 11.8514423,99.9209486 C11.2528846,99.9209486 10.7740385,99.4071146 10.8139423,98.8142292 C10.8139423,98.2213439 11.3725962,97.7865613 11.93125,97.7865613 C16.4403846,97.9051383 20.8697115,97.7075099 24.8201923,97.1936759 C25.41875,97.1146245 25.9774038,97.5098814 26.0572115,98.1027668 C26.1370192,98.6956522 25.7379808,99.2490119 25.1394231,99.3280632 C21.8274038,99.7628458 18.3158654,99.9604743 14.6447115,99.9604743 Z M29.2096154,98.5770751 C28.7307692,98.5770751 28.2519231,98.2213439 28.1721154,97.7470356 C28.0524038,97.1541502 28.4115385,96.6007905 29.0100962,96.4822134 C33.5591346,95.4940711 37.5495192,93.9920949 40.8216346,91.9762846 C41.3403846,91.6600791 41.9788462,91.8181818 42.2980769,92.3320158 C42.6173077,92.8458498 42.4576923,93.4782609 41.9389423,93.7944664 C38.4673077,95.9288538 34.2774038,97.5494071 29.4490385,98.5770751 C29.3692308,98.5375494 29.2894231,98.5770751 29.2096154,98.5770751 Z M44.8519231,91.3438735 C44.5326923,91.3438735 44.2533654,91.2252964 44.0538462,90.9881423 C43.6548077,90.5533597 43.6947115,89.8814229 44.1735577,89.486166 C47.3259615,86.7588933 49.6403846,83.3596838 51.0769231,79.3280632 C51.2764423,78.7747036 51.875,78.458498 52.4735577,78.6561265 C53.0322115,78.8537549 53.3514423,79.4466403 53.1519231,80.0395257 C51.5956731,84.4268775 49.0817308,88.1422925 45.6100962,91.1067194 C45.3706731,91.2648221 45.13125,91.3438735 44.8519231,91.3438735 Z M53.2317308,76.5612648 C53.1519231,76.5612648 53.1120192,76.5612648 53.0322115,76.5217391 C52.4336538,76.4031621 52.0745192,75.8498024 52.1942308,75.256917 C52.6730769,72.8063241 52.9125,70.1185771 52.9125,67.0750988 C52.9125,65.6126482 52.8725962,64.1106719 52.7528846,62.6086957 C52.7129808,62.0158103 53.1519231,61.5019763 53.7504808,61.4624506 C54.3490385,61.4229249 54.8677885,61.8577075 54.9076923,62.4505929 C55.0274038,64.0711462 55.0673077,65.5731225 55.0673077,67.0355731 C55.0673077,70.2371542 54.8278846,73.0434783 54.3091346,75.6126482 C54.1894231,76.2055336 53.7105769,76.5612648 53.2317308,76.5612648 Z M53.43125,59.3675889 C52.8725962,59.3675889 52.39375,58.972332 52.3538462,58.4189723 C52.0745192,55.5731225 51.6754808,52.6482213 51.2764423,49.7628458 C51.0769231,48.3794466 50.9173077,46.9565217 50.7177885,45.5731225 C50.6379808,44.9802372 51.0769231,44.4664032 51.6754808,44.3873518 C52.2740385,44.3083004 52.7927885,44.743083 52.8725962,45.3359684 C53.0322115,46.7193676 53.2317308,48.1027668 53.43125,49.486166 C53.8302885,52.4110672 54.2293269,55.3359684 54.5086538,58.2213439 C54.5884615,58.8142292 54.1495192,59.3280632 53.5509615,59.4071146 C53.5110577,59.3675889 53.4711538,59.3675889 53.43125,59.3675889 Z M51.2764423,42.2134387 C50.7177885,42.2134387 50.2788462,41.8181818 50.1990385,41.2648221 C49.8,37.6284585 49.6403846,34.6245059 49.6403846,31.8972332 C49.6403846,30.6324111 49.6802885,29.4071146 49.7600962,28.1422925 C49.8,27.5494071 50.31875,27.1146245 50.9173077,27.1541502 C51.5158654,27.1936759 51.9548077,27.7075099 51.9149038,28.3003953 C51.8350962,29.486166 51.7951923,30.6719368 51.7951923,31.8972332 C51.7951923,34.5849802 51.9548077,37.5098814 52.3538462,41.0671937 C52.4336538,41.6600791 51.9947115,42.173913 51.3961538,42.2529644 C51.35625,42.2134387 51.3163462,42.2134387 51.2764423,42.2134387 Z M51.3961538,24.9802372 C51.3163462,24.9802372 51.2764423,24.9802372 51.1966346,24.9802372 C50.5980769,24.8616601 50.1990385,24.3083004 50.31875,23.7549407 C50.9173077,20.4743083 51.875,17.5889328 53.2716346,14.9407115 C53.95,13.715415 54.7081731,12.5296443 55.5461538,11.4624506 C55.9052885,10.9881423 56.6235577,10.9090909 57.0625,11.3043478 C57.5413462,11.6600791 57.6211538,12.3320158 57.2221154,12.8063241 C56.4639423,13.7549407 55.7456731,14.8221344 55.1471154,15.9288538 C53.8302885,18.3794466 52.9524038,21.0671937 52.39375,24.1106719 C52.3538462,24.6245059 51.875,24.9802372 51.3961538,24.9802372 Z M59.4966346,10.1185771 C59.1774038,10.1185771 58.8581731,10 58.6586538,9.72332016 C58.2995192,9.24901186 58.3394231,8.5770751 58.8182692,8.22134387 C61.8908654,5.7312253 65.7615385,3.91304348 70.9490385,2.52964427 C71.5076923,2.3715415 72.10625,2.72727273 72.2658654,3.28063241 C72.4254808,3.83399209 72.0663462,4.42687747 71.5076923,4.58498024 C66.5995192,5.88932806 63.0081731,7.58893281 60.175,9.88142292 C59.9754808,10.0395257 59.7360577,10.1185771 59.4966346,10.1185771 Z" id="Shape"></path>
                    <path d="M75.5379808,3.59683794 C75.0192308,3.59683794 74.5802885,3.24110672 74.4605769,2.72727273 C74.3408654,2.13438735 74.7,1.58102767 75.2985577,1.46245059 C77.4134615,1.02766798 79.5682692,0.632411067 81.7230769,0.276679842 C82.3216346,0.197628458 82.8802885,0.553359684 82.9600962,1.14624506 C83.0798077,1.73913043 82.6807692,2.29249012 82.0822115,2.3715415 C79.9673077,2.72727273 77.8524038,3.12252964 75.7375,3.55731225 C75.6975962,3.59683794 75.6177885,3.59683794 75.5379808,3.59683794 Z" id="Path"></path>
                </g>
                <g id="Group" transform="translate(380.000000, 55.000000)">
                    <path d="M56.2962963,34.6325581 C56.3358025,34.0395349 56.3753086,33.4465116 56.3753086,32.8139535 C56.3753086,32.2209302 56.3358025,31.627907 56.2962963,31.0348837 L62.9333333,26.6465116 L60.9580247,23.4046512 L60.6419753,19.6093023 L52.7012346,19.9651163 C52.0691358,18.9372093 51.3580247,17.9883721 50.5679012,17.0395349 L53.3728395,9.60697674 L49.8962963,8.14418605 L47.4074074,5.25813953 L41.2049383,10.2 C40.0987654,9.7255814 38.9530864,9.36976744 37.7679012,9.09302326 L35.6740741,1.42325581 L32,2.29302326 L28.3259259,1.42325581 L26.2320988,9.09302326 C25.0469136,9.36976744 23.9012346,9.76511628 22.7950617,10.2 L16.5925926,5.25813953 L14.1037037,8.14418605 L10.6271605,9.60697674 L13.4320988,17.0395349 C12.6419753,17.9488372 11.9308642,18.9372093 11.2987654,19.9651163 L3.35802469,19.6093023 L3.04197531,23.4046512 L1.06666667,26.6465116 L7.7037037,31.0348837 C7.66419753,31.627907 7.62469136,32.2209302 7.62469136,32.8139535 C7.62469136,33.4069767 7.66419753,34 7.7037037,34.6325581 L1.06666667,39.0209302 L3.04197531,42.2627907 L3.35802469,46.0581395 L11.2987654,45.7023256 C11.9308642,46.7302326 12.6419753,47.7186047 13.4320988,48.627907 L10.6271605,56.0604651 L14.1037037,57.5232558 L16.5925926,60.4093023 L22.7950617,55.4674419 C23.9012346,55.9023256 25.0469136,56.2976744 26.2320988,56.5744186 L28.3259259,64.244186 L32,63.3744186 L35.6740741,64.244186 L37.7679012,56.5744186 C38.9530864,56.2976744 40.0987654,55.9023256 41.2049383,55.4674419 L47.4074074,60.4093023 L49.8962963,57.5232558 L53.3728395,56.0604651 L50.5679012,48.627907 C51.3580247,47.7186047 52.0691358,46.7302326 52.7012346,45.7023256 L60.6419753,46.0581395 L60.9580247,42.2627907 L62.9333333,39.0209302 L56.2962963,34.6325581 Z M32,49.972093 C22.5580247,49.972093 14.8938272,42.3023256 14.8938272,32.8534884 C14.8938272,23.4046512 22.5580247,15.7348837 32,15.7348837 C41.4419753,15.7348837 49.1063249,23.4046512 49.1063249,32.8534884 C49.145679,42.3023256 41.4814815,49.972093 32,49.972093 Z" id="Shape" fill="#F1F2F2"></path>
                    <path d="M28.3259259,65.2325581 C27.8518519,65.2325581 27.417284,64.9162791 27.2987654,64.4418605 L25.362963,57.4046512 C24.5333333,57.1674419 23.7432099,56.9302326 22.9925926,56.6139535 L17.2641975,61.2 C16.8296296,61.555814 16.1580247,61.5162791 15.762963,61.0813953 L13.4716049,58.3930233 L10.1925926,57.0093023 C9.67901235,56.772093 9.40246914,56.1790698 9.6,55.6255814 L12.1679012,48.7860465 C11.654321,48.1139535 11.1407407,47.4418605 10.7061728,46.7697674 L3.39753086,47.0860465 C2.84444444,47.1255814 2.3308642,46.6906977 2.29135802,46.0976744 L2.01481481,42.5790698 L0.197530864,39.5348837 C-0.118518519,39.0604651 0.0395061728,38.3883721 0.513580247,38.072093 L6.63703704,34.0395349 C6.59753086,33.644186 6.59753086,33.2093023 6.59753086,32.7744186 C6.59753086,32.3395349 6.59753086,31.944186 6.63703704,31.5488372 L0.513580247,27.5162791 C0.0395061728,27.2 -0.118518519,26.5674419 0.197530864,26.0534884 L2.01481481,23.0093023 L2.29135802,19.4906977 C2.3308642,18.8976744 2.84444444,18.4627907 3.39753086,18.5023256 L10.7061728,18.8186047 C11.1407407,18.1465116 11.654321,17.4348837 12.1679012,16.8023256 L9.6,9.9627907 C9.40246914,9.40930233 9.63950617,8.81627907 10.1925926,8.57906977 L13.4716049,7.19534884 L15.762963,4.50697674 C16.1580247,4.07209302 16.7901235,3.99302326 17.2246914,4.38837209 L22.9530864,8.93488372 C23.7432099,8.61860465 24.5333333,8.38139535 25.3234568,8.14418605 L27.2592593,1.10697674 C27.417284,0.553488372 27.9703704,0.237209302 28.5234568,0.355813953 L31.9604938,1.14651163 L35.3975309,0.355813953 C35.9506173,0.237209302 36.5037037,0.553488372 36.6617284,1.10697674 L38.5975309,8.14418605 C39.3876543,8.34186047 40.217284,8.61860465 40.9679012,8.93488372 L46.6962963,4.34883721 C47.1308642,3.99302326 47.8024691,4.03255814 48.1580247,4.46744186 L50.4493827,7.15581395 L53.7283951,8.53953488 C54.2419753,8.77674419 54.5185185,9.36976744 54.3209877,9.92325581 L51.7530864,16.7627907 C52.2666667,17.4348837 52.7802469,18.1069767 53.2148148,18.7790698 L60.5234568,18.4627907 C61.0765432,18.4232558 61.5901235,18.8581395 61.6296296,19.4511628 L61.945679,22.9697674 L63.762963,26.0139535 C64.0790123,26.4883721 63.9209877,27.1604651 63.4469136,27.4767442 L57.3234568,31.5093023 C57.362963,31.9046512 57.362963,32.3395349 57.362963,32.7348837 C57.362963,33.1697674 57.362963,33.5651163 57.3234568,34 L63.4469136,38.0325581 C63.9209877,38.3488372 64.0790123,38.9813953 63.762963,39.4953488 L61.945679,42.5395349 L61.6691358,46.0581395 C61.6296296,46.6511628 61.0765432,47.0860465 60.562963,47.0465116 L53.254321,46.7302326 C52.8197531,47.4023256 52.3061728,48.0744186 51.7925926,48.7465116 L54.3604938,55.5860465 C54.5580247,56.1395349 54.3209877,56.7325581 53.7679012,56.9697674 L50.4888889,58.3534884 L48.1975309,61.0418605 C47.8024691,61.4767442 47.1703704,61.555814 46.7358025,61.1604651 L41.0074074,56.6139535 C40.2567901,56.8906977 39.4271605,57.1674419 38.637037,57.4046512 L36.7407407,64.4418605 C36.582716,64.9953488 36.0296296,65.3116279 35.4765432,65.1930233 L32.0395062,64.4023256 L28.6024691,65.1930233 C28.4839506,65.2325581 28.4049383,65.2325581 28.3259259,65.2325581 Z M32,62.227907 C32.0790123,62.227907 32.1580247,62.227907 32.237037,62.2674419 L34.9234568,62.9 L36.7407407,56.2581395 C36.8592593,55.9023256 37.1358025,55.5860465 37.5308642,55.5069767 C38.6765432,55.2302326 39.782716,54.8744186 40.8098765,54.4395349 C41.1654321,54.2813953 41.6,54.3604651 41.8765432,54.5976744 L47.2888889,58.9069767 L49.1061728,56.8116279 C49.2246914,56.6930233 49.3432099,56.5744186 49.5012346,56.5348837 L52.0296296,55.4674419 L49.5802469,48.9837209 C49.4617284,48.627907 49.5012346,48.2325581 49.7777778,47.9162791 C50.5283951,47.0465116 51.2,46.0976744 51.7925926,45.1093023 C51.9901235,44.7930233 52.3851852,44.555814 52.7407407,44.5953488 L59.654321,44.9116279 L59.891358,42.1837209 C59.891358,42.0255814 59.9703704,41.8674419 60.0493827,41.7093023 L61.4716049,39.3372093 L55.7037037,35.5418605 C55.3876543,35.344186 55.1901235,34.9488372 55.2296296,34.5534884 C55.2691358,34 55.308642,33.4069767 55.308642,32.8139535 C55.308642,32.2209302 55.2691358,31.6674419 55.2296296,31.1139535 C55.1901235,30.7186047 55.3876543,30.3627907 55.7037037,30.1255814 L61.4716049,26.3302326 L60.0493827,23.9581395 C59.9703704,23.8 59.9308642,23.6418605 59.891358,23.4837209 L59.654321,20.7162791 L52.7407407,21.0325581 C52.3061728,21.072093 51.9901235,20.8744186 51.7925926,20.5186047 C51.2,19.5697674 50.5283951,18.6209302 49.7777778,17.7116279 C49.5407407,17.3953488 49.4617284,17 49.5802469,16.644186 L51.9901235,10.1604651 L49.4617284,9.09302326 C49.3037037,9.01395349 49.1851852,8.93488372 49.0666667,8.81627907 L47.2493827,6.72093023 L41.8765432,11.0302326 C41.5604938,11.2674419 41.1654321,11.3465116 40.8098765,11.1883721 C39.7432099,10.7534884 38.637037,10.3976744 37.5308642,10.1209302 C37.1358025,10.0418605 36.8592593,9.7255814 36.7407407,9.36976744 L34.9234568,2.72790698 L32.237037,3.36046512 C32.0790123,3.4 31.9209877,3.4 31.762963,3.36046512 L29.0765432,2.72790698 L27.2592593,9.36976744 C27.1407407,9.76511628 26.8641975,10.0418605 26.4691358,10.1209302 C25.362963,10.3976744 24.2567901,10.7534884 23.1901235,11.1883721 C22.8345679,11.3465116 22.4,11.2674419 22.1234568,11.0302326 L16.7111111,6.72093023 L14.8938272,8.81627907 C14.7753086,8.93488372 14.6567901,9.05348837 14.4987654,9.09302326 L11.9703704,10.1604651 L14.3802469,16.644186 C14.4987654,17 14.4592593,17.4348837 14.182716,17.7116279 C13.4320988,18.5813953 12.7604938,19.5302326 12.1679012,20.4790698 C11.9703704,20.7953488 11.6148148,21.0325581 11.2197531,20.9930233 L4.30617284,20.6767442 L4.0691358,23.444186 C4.0691358,23.6023256 3.99012346,23.7604651 3.91111111,23.9186047 L2.48888889,26.2906977 L8.25679012,30.0860465 C8.57283951,30.2837209 8.77037037,30.6790698 8.7308642,31.0744186 C8.69135802,31.627907 8.65185185,32.2209302 8.65185185,32.8139535 C8.65185185,33.4069767 8.69135802,33.9604651 8.7308642,34.5534884 C8.77037037,34.9488372 8.57283951,35.3046512 8.25679012,35.5418605 L2.48888889,39.3372093 L3.91111111,41.7093023 C3.99012346,41.8674419 4.02962963,42.0255814 4.0691358,42.1837209 L4.30617284,44.9116279 L11.2197531,44.5953488 C11.6148148,44.555814 11.9703704,44.7534884 12.1679012,45.1093023 C12.7604938,46.0581395 13.4320988,47.0069767 14.182716,47.8767442 C14.4197531,48.1930233 14.4987654,48.5883721 14.3802469,48.944186 L11.9308642,55.427907 L14.4592593,56.4953488 C14.617284,56.5744186 14.7358025,56.6534884 14.854321,56.772093 L16.6716049,58.8674419 L22.1234568,54.5581395 C22.4395062,54.3209302 22.8345679,54.2418605 23.1901235,54.4 C24.217284,54.8348837 25.3234568,55.1906977 26.4691358,55.4674419 C26.8641975,55.5465116 27.1407407,55.8627907 27.2592593,56.2186047 L29.0765432,62.8604651 L31.762963,62.227907 C31.8419753,62.227907 31.9209877,62.227907 32,62.227907 Z M32,51.0395349 C21.9654321,51.0395349 13.8271605,42.855814 13.8271605,32.8534884 C13.8271605,22.8116279 22.0049383,14.6674419 32,14.6674419 C42.0345679,14.6674419 50.172982,22.8511628 50.172982,32.8534884 C50.2123457,42.855814 42.0345679,51.0395349 32,51.0395349 Z M32,16.7627907 C23.1506173,16.7627907 15.9604938,23.9581395 15.9604938,32.8139535 C15.9604938,41.6697674 23.1506173,48.8651163 32,48.8651163 C40.8493827,48.8651163 48.0395062,41.6697674 48.0395062,32.8139535 C48.0395062,23.9581395 40.8493827,16.7627907 32,16.7627907 Z" id="Shape" fill="#000000"></path>
                </g>
                <g id="Group" transform="translate(80.000000, 75.000000)">
                    <path d="M49.8251748,30.56 C49.865035,30.04 49.9048951,29.52 49.9048951,28.96 C49.9048951,28.44 49.865035,27.88 49.8251748,27.36 L55.6846154,23.48 L53.9706294,20.6 L53.6916084,17.24 L46.7160839,17.56 C46.158042,16.64 45.5202797,15.8 44.8426573,15 L47.313986,8.44 L44.2447552,7.16 L42.0524476,4.6 L36.5916084,9 C35.634965,8.6 34.5986014,8.28 33.5622378,8 L31.6888112,1.24 L28.4202797,2 L25.1517483,1.24 L23.2783217,8 C22.241958,8.24 21.2454545,8.6 20.248951,9 L14.7881119,4.6 L12.5958042,7.16 L9.52657343,8.44 L11.9979021,15 C11.3202797,15.8 10.6825175,16.68 10.1244755,17.56 L3.10909091,17.24 L2.83006993,20.6 L1.07622378,23.48 L6.93566434,27.36 C6.8958042,27.88 6.85594406,28.4 6.85594406,28.96 C6.85594406,29.48 6.8958042,30.04 6.93566434,30.56 L1.07622378,34.44 L2.83006993,37.32 L3.10909091,40.68 L10.1244755,40.36 C10.6825175,41.28 11.3202797,42.12 11.9979021,42.92 L9.52657343,49.48 L12.5958042,50.8 L14.7881119,53.36 L20.248951,48.96 C21.2055944,49.36 22.241958,49.68 23.2783217,49.96 L25.1517483,56.72 L28.4202797,55.96 L31.6888112,56.72 L33.5622378,49.96 C34.5986014,49.72 35.634965,49.36 36.5916084,48.96 L42.0524476,53.36 L44.2447552,50.8 L47.313986,49.52 L44.8426573,42.96 C45.5202797,42.16 46.158042,41.28 46.7160839,40.4 L53.6916084,40.72 L53.9706294,37.36 L55.7244755,34.48 L49.8251748,30.56 Z M28.3804196,44.12 C20.0496503,44.12 13.2734266,37.32 13.2734266,28.96 C13.2734266,20.6 20.0496503,13.8 28.3804196,13.8 C36.7111888,13.8 43.4874126,20.6 43.4874126,28.96 C43.4874126,37.32 36.751049,44.12 28.3804196,44.12 Z" id="Shape" fill="#65CAEB"></path>
                    <path d="M25.1517483,57.8 C24.6734266,57.8 24.234965,57.48 24.1153846,57 L22.4412587,50.84 C21.7636364,50.64 21.1258741,50.44 20.4881119,50.2 L15.5055944,54.2 C15.0671329,54.56 14.3895105,54.52 14.0307692,54.08 L11.9979021,51.72 L9.16783217,50.52 C8.64965035,50.28 8.37062937,49.68 8.56993007,49.12 L10.8020979,43.12 C10.3636364,42.56 9.96503497,42 9.60629371,41.44 L3.22867133,41.72 C2.67062937,41.76 2.15244755,41.32 2.11258741,40.72 L1.87342657,37.64 L0.279020979,35 C-0.0398601399,34.52 0.11958042,33.84 0.597902098,33.52 L5.93916084,30 C5.93916084,29.64 5.8993007,29.32 5.8993007,28.96 C5.8993007,28.6 5.8993007,28.28 5.93916084,27.92 L0.597902098,24.4 C0.11958042,24.08 -0.0398601399,23.44 0.279020979,22.92 L1.87342657,20.28 L2.11258741,17.2 C2.15244755,16.6 2.67062937,16.16 3.22867133,16.2 L9.60629371,16.48 C9.96503497,15.92 10.4034965,15.36 10.8020979,14.8 L8.56993007,8.8 C8.37062937,8.24 8.60979021,7.64 9.16783217,7.4 L11.9979021,6.2 L14.0307692,3.84 C14.4293706,3.4 15.0671329,3.32 15.5055944,3.72 L20.4881119,7.72 C21.1258741,7.48 21.8034965,7.28 22.4412587,7.08 L24.1153846,0.92 C24.2748252,0.36 24.8328671,0.04 25.3909091,0.16 L28.4202797,0.88 L31.4496503,0.16 C32.0076923,0.04 32.5657343,0.36 32.7251748,0.92 L34.3993007,7.08 C35.0769231,7.28 35.7146853,7.48 36.3524476,7.72 L41.334965,3.72 C41.7734266,3.36 42.451049,3.4 42.8097902,3.84 L44.8426573,6.2 L47.7125874,7.4 C48.2307692,7.64 48.5097902,8.24 48.3104895,8.8 L46.0783217,14.8 C46.5167832,15.36 46.9153846,15.92 47.2741259,16.48 L53.6517483,16.2 C54.2097902,16.16 54.727972,16.6 54.7678322,17.2 L55.0468531,20.28 L56.6412587,22.92 C56.9601399,23.4 56.8006993,24.08 56.3223776,24.4 L50.9811189,27.92 C50.9811189,28.28 51.020979,28.6 51.020979,28.96 C51.020979,29.32 51.020979,29.64 50.9811189,30 L56.3223776,33.52 C56.8006993,33.84 56.9601399,34.48 56.6412587,35 L55.0468531,37.64 L54.8076923,40.72 C54.7678322,41.32 54.2097902,41.76 53.6916084,41.72 L47.313986,41.44 C46.9552448,42 46.5167832,42.56 46.1181818,43.12 L48.3503497,49.12 C48.5496503,49.68 48.3104895,50.28 47.7524476,50.52 L44.8825175,51.72 L42.8496503,54.08 C42.4909091,54.52 41.8132867,54.6 41.3748252,54.2 L36.3923077,50.2 C35.7545455,50.44 35.1167832,50.64 34.4391608,50.84 L32.765035,57 C32.6055944,57.56 32.0475524,57.88 31.4895105,57.76 L28.4601399,57.04 L25.4307692,57.76 C25.3111888,57.8 25.2314685,57.8 25.1517483,57.8 Z M28.3804196,54.84 C28.4601399,54.84 28.5398601,54.84 28.6195804,54.88 L30.8517483,55.4 L32.4461538,49.64 C32.5657343,49.28 32.8447552,48.96 33.2433566,48.88 C34.2398601,48.64 35.1965035,48.32 36.1132867,47.96 C36.472028,47.8 36.9104895,47.88 37.1895105,48.12 L41.8531469,51.84 L43.3678322,50.08 C43.4874126,49.96 43.606993,49.84 43.7664336,49.8 L45.879021,48.92 L43.7664336,43.32 C43.6468531,42.96 43.6867133,42.52 43.9657343,42.24 C44.6433566,41.44 45.2412587,40.64 45.7594406,39.8 C45.9587413,39.48 46.3573427,39.28 46.7160839,39.28 L52.6552448,39.56 L52.8545455,37.28 C52.8545455,37.12 52.9342657,36.96 53.013986,36.8 L54.2097902,34.84 L49.2272727,31.56 C48.9083916,31.36 48.7090909,30.96 48.748951,30.56 C48.7888112,30.04 48.8286713,29.56 48.8286713,29.04 C48.8286713,28.52 48.7888112,28.04 48.748951,27.52 C48.7090909,27.12 48.9083916,26.76 49.2272727,26.52 L54.2097902,23.2 L53.013986,21.24 C52.9342657,21.08 52.8944056,20.92 52.8545455,20.76 L52.6552448,18.44 L46.7160839,18.72 C46.3174825,18.76 45.9587413,18.56 45.7594406,18.2 C45.2412587,17.36 44.6433566,16.52 43.9657343,15.76 C43.7265734,15.44 43.6468531,15.04 43.7664336,14.68 L45.879021,9.08 L43.7664336,8.2 C43.606993,8.12 43.4874126,8.04 43.3678322,7.92 L41.8531469,6.16 L37.1895105,9.88 C36.8706294,10.12 36.472028,10.2 36.1132867,10.04 C35.1965035,9.64 34.2,9.36 33.2433566,9.12 C32.8447552,9.04 32.5657343,8.72 32.4461538,8.36 L30.8517483,2.6 L28.6195804,3.12 C28.4601399,3.16 28.3006993,3.16 28.1412587,3.12 L25.9090909,2.6 L24.3146853,8.36 C24.1951049,8.76 23.9160839,9.04 23.5174825,9.12 C22.5608392,9.36 21.5643357,9.68 20.6475524,10.04 C20.2888112,10.2 19.8503497,10.12 19.5713287,9.88 L14.9076923,6.16 L13.393007,7.92 C13.2734266,8.04 13.1538462,8.16 12.9944056,8.2 L10.8818182,9.08 L12.9944056,14.68 C13.113986,15.04 13.0741259,15.48 12.7951049,15.76 C12.1174825,16.56 11.5195804,17.36 11.0013986,18.2 C10.8020979,18.52 10.4433566,18.76 10.0447552,18.72 L4.10559441,18.44 L3.90629371,20.76 C3.90629371,20.92 3.82657343,21.08 3.74685315,21.24 L2.55104895,23.2 L7.53356643,26.48 C7.85244755,26.68 8.05174825,27.08 8.01188811,27.48 C7.97202797,28 7.93216783,28.48 7.93216783,29 C7.93216783,29.52 7.97202797,30 8.01188811,30.52 C8.05174825,30.92 7.85244755,31.28 7.53356643,31.52 L2.55104895,34.8 L3.74685315,36.76 C3.82657343,36.92 3.86643357,37.08 3.90629371,37.24 L4.10559441,39.52 L10.0447552,39.24 C10.4433566,39.2 10.8020979,39.4 11.0013986,39.76 C11.5195804,40.6 12.1174825,41.44 12.7951049,42.2 C13.0342657,42.48 13.113986,42.92 12.9944056,43.28 L10.8818182,48.88 L12.9944056,49.76 C13.1538462,49.84 13.2734266,49.92 13.393007,50.04 L14.9076923,51.8 L19.5713287,48.08 C19.8902098,47.84 20.2888112,47.76 20.6475524,47.92 C21.5643357,48.28 22.520979,48.6 23.5174825,48.84 C23.9160839,48.92 24.1951049,49.24 24.3146853,49.6 L25.9090909,55.36 L28.1412587,54.84 C28.220979,54.88 28.3006993,54.84 28.3804196,54.84 Z M28.3804196,45.24 C19.4517483,45.24 12.1972028,37.96 12.1972028,29 C12.1972028,20.04 19.4517483,12.76 28.3804196,12.76 C37.3090909,12.76 44.5636364,20.04 44.5636364,29 C44.5636364,37.92 37.3090909,45.24 28.3804196,45.24 Z M28.3804196,14.92 C20.6475524,14.92 14.3496503,21.24 14.3496503,29 C14.3496503,36.76 20.6475524,43.08 28.3804196,43.08 C36.1132867,43.08 42.4111888,36.76 42.4111888,29 C42.4111888,21.2 36.1132867,14.92 28.3804196,14.92 Z" id="Shape" fill="#000000"></path>
                </g>
                <g id="Group" transform="translate(7.000000, 131.000000)">
                    <path d="M50.72,26.12 C50.72,39.76 39.64,50.8 26,50.8 C12.36,50.8 1.32,39.76 1.32,26.12 C1.32,12.48 12.36,1.4 26,1.4 C39.68,1.4 50.72,12.48 50.72,26.12 Z" id="Path" fill="#FFB09C"></path>
                    <path d="M26.04,51.92 C11.84,51.92 0.24,40.36 0.24,26.12 C0.24,11.88 11.8,0.32 26.04,0.32 C40.24,0.32 51.84,11.88 51.84,26.12 C51.8,40.32 40.24,51.92 26.04,51.92 Z M26.04,2.52 C13.04,2.52 2.44,13.12 2.44,26.12 C2.44,39.12 13.04,49.72 26.04,49.72 C39.08,49.72 49.64,39.12 49.64,26.12 C49.64,13.08 39.04,2.52 26.04,2.52 Z" id="Shape" fill="#000000"></path>
                </g>
                <g id="Group" transform="translate(19.000000, 143.000000)">
                    <g transform="translate(0.000000, 13.324324)" id="Path">
                        <line x1="1.13648649" y1="1.29324324" x2="27.7851351" y2="1.29324324" fill="#FFFFFF"></line>
                        <path d="M27.7851351,2.35135135 L1.17567568,2.35135135 C0.587837838,2.35135135 0.117567568,1.88108108 0.117567568,1.29324324 C0.117567568,0.705405405 0.587837838,0.235135135 1.17567568,0.235135135 L27.7851351,0.235135135 C28.372973,0.235135135 28.8432432,0.705405405 28.8432432,1.29324324 C28.8432432,1.88108108 28.372973,2.35135135 27.7851351,2.35135135 Z" fill="#000000"></path>
                    </g>
                    <g transform="translate(13.324324, 0.000000)" id="Path">
                        <line x1="1.13648649" y1="1.29324324" x2="1.13648649" y2="27.9418919" fill="#FFFFFF"></line>
                        <path d="M1.13648649,29 C0.548648649,29 0.0783783784,28.5297297 0.0783783784,27.9418919 L0.0783783784,1.33243243 C0.0783783784,0.744594595 0.548648649,0.274324324 1.13648649,0.274324324 C1.72432432,0.274324324 2.19459459,0.744594595 2.19459459,1.33243243 L2.19459459,27.9418919 C2.19459459,28.5297297 1.72432432,29 1.13648649,29 Z" fill="#000000"></path>
                    </g>
                </g>
                <g id="Group" transform="translate(94.000000, 242.000000)">
                    <g id="Path">
                        <line x1="1.22931034" y1="1.26896552" x2="21.7706897" y2="21.7706897" fill="#FFFFFF"></line>
                        <path d="M21.7706897,22.8413793 C21.4931034,22.8413793 21.2155172,22.7224138 21.0172414,22.5241379 L0.515517241,2.02241379 C0.0793103448,1.5862069 0.0793103448,0.912068966 0.515517241,0.515517241 C0.951724138,0.0793103448 1.62586207,0.0793103448 2.02241379,0.515517241 L22.5241379,21.0172414 C22.9603448,21.4534483 22.9603448,22.1275862 22.5241379,22.5241379 C22.2862069,22.762069 22.0482759,22.8413793 21.7706897,22.8413793 Z" fill="#000000"></path>
                    </g>
                    <g id="Path">
                        <line x1="21.7706897" y1="1.26896552" x2="1.22931034" y2="21.7706897" fill="#FFFFFF"></line>
                        <path d="M1.22931034,22.8413793 C0.951724138,22.8413793 0.674137931,22.7224138 0.475862069,22.5241379 C0.0396551724,22.087931 0.0396551724,21.4137931 0.475862069,21.0172414 L20.9775862,0.515517241 C21.4137931,0.0793103448 22.087931,0.0793103448 22.4844828,0.515517241 C22.9206897,0.951724138 22.9206897,1.62586207 22.4844828,2.02241379 L1.98275862,22.5241379 C1.78448276,22.762069 1.50689655,22.8413793 1.22931034,22.8413793 Z" fill="#000000"></path>
                    </g>
                </g>
                <g id="Group" transform="translate(436.000000, 30.000000)">
                    <g id="Path">
                        <line x1="1.13513514" y1="1.34210526" x2="13.7027027" y2="13.5789474" fill="#FFFFFF"></line>
                        <path d="M13.7027027,14.6447368 C13.4189189,14.6447368 13.1351351,14.5263158 12.9324324,14.3289474 L0.405405405,2.13157895 C-0.0405405405,1.69736842 -0.0405405405,1.02631579 0.405405405,0.631578947 C0.851351351,0.197368421 1.54054054,0.197368421 1.94594595,0.631578947 L14.472973,12.8289474 C14.9189189,13.2631579 14.9189189,13.9342105 14.472973,14.3289474 C14.2702703,14.5263158 13.9864865,14.6447368 13.7027027,14.6447368 Z" fill="#000000"></path>
                    </g>
                    <g id="Path">
                        <line x1="13.7027027" y1="1.34210526" x2="1.13513514" y2="13.5789474" fill="#FFFFFF"></line>
                        <path d="M1.13513514,14.6447368 C0.851351351,14.6447368 0.567567568,14.5263158 0.364864865,14.3289474 C-0.0810810811,13.8947368 -0.0810810811,13.2236842 0.364864865,12.8289474 L12.8918919,0.631578947 C13.3378378,0.197368421 14.027027,0.197368421 14.4324324,0.631578947 C14.8783784,1.06578947 14.8783784,1.73684211 14.4324324,2.13157895 L1.90540541,14.3289474 C1.7027027,14.5263158 1.41891892,14.6447368 1.13513514,14.6447368 Z" fill="#000000"></path>
                    </g>
                </g>
                <g id="Group" transform="translate(158.000000, 135.000000)">
                    <g id="Path">
                        <line x1="1.42105263" y1="1.30945946" x2="13.6184211" y2="13.2101351" fill="#FFFFFF"></line>
                        <path d="M13.6184211,14.25 C13.3421053,14.25 13.0657895,14.1344595 12.8684211,13.9418919 L0.671052632,2.04121622 C0.236842105,1.61756757 0.236842105,0.962837838 0.671052632,0.577702703 C1.10526316,0.154054054 1.77631579,0.154054054 2.17105263,0.577702703 L14.3684211,12.4783784 C14.8026316,12.902027 14.8026316,13.5567568 14.3684211,13.9418919 C14.1710526,14.172973 13.8947368,14.25 13.6184211,14.25 Z" fill="#000000"></path>
                    </g>
                    <g id="Path">
                        <line x1="13.6184211" y1="1.30945946" x2="1.42105263" y2="13.2101351" fill="#FFFFFF"></line>
                        <path d="M1.42105263,14.25 C1.14473684,14.25 0.868421053,14.1344595 0.671052632,13.9418919 C0.236842105,13.5182432 0.236842105,12.8635135 0.671052632,12.4783784 L12.8684211,0.577702703 C13.3026316,0.154054054 13.9736842,0.154054054 14.3684211,0.577702703 C14.8026316,1.00135135 14.8026316,1.65608108 14.3684211,2.04121622 L2.17105263,13.9418919 C1.97368421,14.172973 1.69736842,14.25 1.42105263,14.25 Z" fill="#000000"></path>
                    </g>
                </g>
                <path d="M471,174 C454.986264,174 442,160.973901 442,145 C442,129.026099 455.026099,116 471,116 C487.013736,116 500,129.026099 500,145 C500,160.973901 487.013736,174 471,174 Z M471,118.151099 C456.181319,118.151099 444.151099,130.181319 444.151099,145 C444.151099,159.818681 456.181319,171.848901 471,171.848901 C485.818681,171.848901 497.848901,159.818681 497.848901,145 C497.848901,130.181319 485.818681,118.151099 471,118.151099 Z" id="Shape" fill="#000000"></path>
                <g id="Group" transform="translate(455.000000, 129.000000)" fill="#000000">
                    <path d="M3.27804878,30.5642857 C3.00487805,30.5642857 2.73170732,30.4464286 2.53658537,30.25 C2.10731707,29.8178571 2.10731707,29.15 2.53658537,28.7571429 L28.3317073,2.78928571 C28.7609756,2.35714286 29.4243902,2.35714286 29.8146341,2.78928571 C30.2439024,3.22142857 30.2439024,3.88928571 29.8146341,4.28214286 L4.0195122,30.25 C3.78536585,30.4857143 3.55121951,30.5642857 3.27804878,30.5642857 Z" id="Path"></path>
                    <path d="M6.71219512,13.2392857 C3.16097561,13.2392857 0.273170732,10.3321429 0.273170732,6.79642857 C0.273170732,3.22142857 3.16097561,0.314285714 6.71219512,0.314285714 C10.2634146,0.314285714 13.1121951,3.22142857 13.1121951,6.79642857 C13.1512195,10.3714286 10.2634146,13.2392857 6.71219512,13.2392857 Z M6.71219512,2.475 C4.33170732,2.475 2.4195122,4.4 2.4195122,6.79642857 C2.4195122,9.19285714 4.33170732,11.1178571 6.71219512,11.1178571 C9.09268293,11.1178571 11.004878,9.19285714 11.004878,6.79642857 C11.0439024,4.4 9.09268293,2.475 6.71219512,2.475 Z" id="Shape"></path>
                    <path d="M25.6,32.725 C22.0487805,32.725 19.1609756,29.8178571 19.1609756,26.2428571 C19.1609756,22.6678571 22.0487805,19.8 25.6,19.8 C29.1512195,19.8 32,22.7071429 32,26.2428571 C32,29.8571429 29.1512195,32.725 25.6,32.725 Z M25.6,21.9607143 C23.2195122,21.9607143 21.3073171,23.8857143 21.3073171,26.2821429 C21.3073171,28.6785714 23.2195122,30.6035714 25.6,30.6035714 C27.9804878,30.6035714 29.8926829,28.6785714 29.8926829,26.2821429 C29.8926829,23.8857143 27.9804878,21.9607143 25.6,21.9607143 Z" id="Shape"></path>
                </g>
                <g id="Group" transform="translate(0.000000, 2.000000)">
                    <g id="Shape">
                        <path d="M64.56,32.4581395 C64.56,15.1418605 50.36,1.06744186 32.8,1.06744186 C15.28,1.06744186 1.04,15.1023256 1.04,32.4581395 C1.04,42.1046512 5.44,50.7232558 12.36,56.455814 L11.72,37.6372093 L32.8,37.6372093 L53.88,37.6372093 L53.24,56.455814 C60.16,50.7232558 64.56,42.1046512 64.56,32.4581395 Z M32.84,32.4581395 C26.96,32.4581395 22.16,27.7534884 22.16,21.9023256 C22.16,16.0511628 26.92,11.3465116 32.84,11.3465116 C38.76,11.3465116 43.52,16.0511628 43.52,21.9023256 C43.52,27.7534884 38.72,32.4581395 32.84,32.4581395 Z" fill="#FFD754"></path>
                        <path d="M53.24,57.5627907 C53.08,57.5627907 52.92,57.5232558 52.76,57.444186 C52.36,57.2465116 52.12,56.8511628 52.16,56.455814 L52.76,38.744186 L12.88,38.744186 L13.48,56.1790698 C13.52,56.2976744 13.52,56.4162791 13.52,56.5348837 C13.52,57.127907 13,57.6418605 12.4,57.6023256 C12.12,57.6023256 11.88,57.5232558 11.68,57.3651163 C4.28,51.1186047 0,42.0651163 0,32.4581395 C0,14.5488372 14.72,0 32.84,0 C50.96,0 65.68,14.5488372 65.68,32.4581395 C65.68,42.0651163 61.4,51.0790698 53.96,57.2860465 C53.76,57.444186 53.52,57.5627907 53.24,57.5627907 Z M32.84,2.1744186 C15.92,2.1744186 2.2,15.7744186 2.2,32.4581395 C2.2,40.5627907 5.48,48.272093 11.28,53.9651163 L10.72,37.6767442 C10.72,37.4 10.8,37.1232558 11.04,36.8860465 C11.24,36.6883721 11.52,36.5697674 11.8,36.5697674 L53.92,36.5697674 C54.2,36.5697674 54.48,36.6883721 54.72,36.8860465 C54.92,37.0837209 55.04,37.3604651 55.04,37.6767442 L54.48,53.9651163 C60.28,48.272093 63.56,40.6023256 63.56,32.4581395 C63.48,15.7744186 49.76,2.1744186 32.84,2.1744186 Z M32.84,33.5255814 C26.36,33.5255814 21.08,28.3069767 21.08,21.9023256 C21.08,15.4976744 26.36,10.2790698 32.84,10.2790698 C39.32,10.2790698 44.6,15.4976744 44.6,21.9023256 C44.6,28.3069767 39.32,33.5255814 32.84,33.5255814 Z M32.84,12.4534884 C27.56,12.4534884 23.24,16.7232558 23.24,21.9418605 C23.24,27.1604651 27.56,31.4302326 32.84,31.4302326 C38.12,31.4302326 42.44,27.1604651 42.44,21.9418605 C42.44,16.6837209 38.12,12.4534884 32.84,12.4534884 Z" fill="#000000"></path>
                    </g>
                    <g transform="translate(20.800000, 10.279070)">
                        <path d="M12.04,1.06744186 C6.16,1.06744186 1.36,5.77209302 1.36,11.6232558 C1.36,17.4348837 6.12,22.1790698 12.04,22.1790698 C17.96,22.1790698 22.72,17.4744186 22.72,11.6232558 C22.72,5.81162791 17.92,1.06744186 12.04,1.06744186 Z" id="Path" fill="#FFFFFF"></path>
                        <path d="M12.04,23.2465116 C5.56,23.2465116 0.28,18.027907 0.28,11.6232558 C0.28,5.21860465 5.56,0 12.04,0 C18.52,0 23.8,5.21860465 23.8,11.6232558 C23.8,18.027907 18.52,23.2465116 12.04,23.2465116 Z M12.04,2.1744186 C6.76,2.1744186 2.44,6.44418605 2.44,11.6627907 C2.44,16.8813953 6.76,21.1511628 12.04,21.1511628 C17.32,21.1511628 21.64,16.8813953 21.64,11.6627907 C21.64,6.40465116 17.32,2.1744186 12.04,2.1744186 Z" id="Shape" fill="#000000"></path>
                    </g>
                    <g transform="translate(10.400000, 36.372093)">
                        <path d="M22.44,1.26511628 L1.36,1.26511628 L2,20.0837209 C5.4,22.8906977 9.36,24.9860465 13.72,26.2511628 L13.72,13.8767442 L13.72,26.2511628 C16.48,27.0418605 19.4,27.4767442 22.4,27.4767442 C25.4,27.4767442 28.32,27.0418605 31.08,26.2511628 L31.08,13.8767442 L31.08,26.2511628 C35.44,25.0255814 39.44,22.9302326 42.8,20.0837209 L43.44,1.26511628 L22.44,1.26511628 Z" id="Path" fill="#FFFFFF"></path>
                        <path d="M22.44,28.544186 C19.44,28.544186 16.44,28.1093023 13.48,27.2790698 C13.48,27.2790698 13.48,27.2790698 13.48,27.2790698 C9,26.0139535 4.88,23.8790698 1.36,20.9139535 C1.12,20.7162791 1,20.4395349 0.96,20.1232558 L0.32,1.30465116 C0.32,1.02790698 0.4,0.751162791 0.64,0.513953488 C0.84,0.31627907 1.12,0.197674419 1.4,0.197674419 L43.52,0.197674419 C43.8,0.197674419 44.08,0.31627907 44.32,0.513953488 C44.52,0.711627907 44.64,0.988372093 44.64,1.30465116 L44,20.1232558 C44,20.4395349 43.84,20.7162791 43.6,20.9139535 C40.08,23.8395349 36.08,25.9348837 31.68,27.2 C31.6,27.2395349 31.48,27.2790698 31.36,27.2790698 C28.36,28.1488372 25.36,28.544186 22.44,28.544186 Z M14.84,25.4209302 C19.88,26.6860465 25,26.6860465 30.04,25.4209302 L30.04,13.8767442 C30.04,13.2837209 30.52,12.8093023 31.12,12.8093023 C31.72,12.8093023 32.2,13.2837209 32.2,13.8767442 L32.2,24.7883721 C35.72,23.6418605 38.92,21.8627907 41.8,19.5697674 L42.4,2.33255814 L2.52,2.33255814 L3.12,19.5697674 C5.96,21.8627907 9.2,23.6418605 12.72,24.7883721 L12.72,13.8767442 C12.72,13.2837209 13.2,12.8093023 13.8,12.8093023 C14.4,12.8093023 14.88,13.2837209 14.88,13.8767442 L14.88,25.4209302 L14.84,25.4209302 Z" id="Shape" fill="#000000"></path>
                    </g>
                </g>
                <path d="M56.8890688,80 L10.0712551,80 C9.47611336,80 9,79.5555556 9,79 C9,78.4444444 9.47611336,78 10.0712551,78 L56.9287449,78 C57.5238866,78 58,78.4444444 58,79 C57.9603239,79.5185185 57.4842105,80 56.8890688,80 Z" id="Path" fill="#000000"></path>
                <path d="M56.8890688,97 L10.0712551,97 C9.47611336,97 9,96.5555556 9,96 C9,95.4444444 9.47611336,95 10.0712551,95 L56.9287449,95 C57.5238866,95 58,95.4444444 58,96 C57.9603239,96.5555556 57.4842105,97 56.8890688,97 Z" id="Path" fill="#000000"></path>
                <g id="Group" transform="translate(468.000000, 20.000000)">
                    <circle id="Oval" fill="#FFFFFF" cx="7.41666667" cy="7.375" r="6.20833333"></circle>
                    <path d="M7.41666667,14.7083333 C3.375,14.7083333 0.0833333333,11.4166667 0.0833333333,7.375 C0.0833333333,3.33333333 3.375,0.0416666667 7.41666667,0.0416666667 C11.4583333,0.0416666667 14.75,3.33333333 14.75,7.375 C14.75,11.4166667 11.5,14.7083333 7.41666667,14.7083333 Z M7.41666667,2.25 C4.625,2.25 2.33333333,4.54166667 2.33333333,7.33333333 C2.33333333,10.125 4.625,12.4166667 7.41666667,12.4166667 C10.2083333,12.4166667 12.5,10.125 12.5,7.33333333 C12.5,4.54166667 10.25,2.25 7.41666667,2.25 Z" id="Shape" fill="#000000"></path>
                </g>
                <g id="Group" transform="translate(152.000000, 167.000000)">
                    <circle id="Oval" fill="#FFFFFF" cx="7.33333333" cy="7.54166667" r="6.20833333"></circle>
                    <path d="M7.33333333,14.875 C3.29166667,14.875 0,11.5833333 0,7.54166667 C0,3.5 3.29166667,0.208333333 7.33333333,0.208333333 C11.375,0.208333333 14.6666667,3.5 14.6666667,7.54166667 C14.7083333,11.5833333 11.4166667,14.875 7.33333333,14.875 Z M7.33333333,2.45833333 C4.54166667,2.45833333 2.25,4.75 2.25,7.54166667 C2.25,10.3333333 4.54166667,12.625 7.33333333,12.625 C10.125,12.625 12.4166667,10.3333333 12.4166667,7.54166667 C12.4166667,4.75 10.1666667,2.45833333 7.33333333,2.45833333 Z" id="Shape" fill="#000000"></path>
                </g>
                <path d="M496.951014,51 L476.048986,51 C475.466216,51 475,50.5555556 475,50 C475,49.4444444 475.466216,49 476.048986,49 L496.951014,49 C497.533784,49 498,49.4444444 498,50 C498,50.5555556 497.533784,51 496.951014,51 Z" id="Path" fill="#000000"></path>
                <path d="M489.92,72 L456.08,72 C455.48,72 455,71.5555556 455,71 C455,70.4444444 455.48,70 456.08,70 L489.92,70 C490.52,70 491,70.4444444 491,71 C491,71.5555556 490.52,72 489.92,72 Z" id="Path" fill="#000000"></path>
                <path d="M149.940083,36 L133.059917,36 C132.471074,36 132,35.5555556 132,35 C132,34.4444444 132.471074,34 133.059917,34 L149.940083,34 C150.528926,34 151,34.4444444 151,35 C151,35.5555556 150.528926,36 149.940083,36 Z" id="Path" fill="#000000"></path>
                <path d="M132.948673,53 L113.051327,53 C112.467257,53 112,52.5555556 112,52 C112,51.4444444 112.467257,51 113.051327,51 L132.948673,51 C133.532743,51 134,51.4444444 134,52 C134,52.5555556 133.532743,53 132.948673,53 Z" id="Path" fill="#000000"></path>
                <path d="M149.94046,14 L123.05954,14 C122.470907,14 122,13.5555556 122,13 C122,12.4444444 122.470907,12 123.05954,12 L149.94046,12 C150.529093,12 151,12.4444444 151,13 C151,13.5185185 150.529093,14 149.94046,14 Z" id="Path" fill="#000000"></path>
                <g id="Group" transform="translate(348.000000, 147.000000)">
                    <circle id="Oval" fill="#FFFFFF" cx="11.0814815" cy="11.0407407" r="9.6962963"></circle>
                    <path d="M11.0814815,21.837037 C5.13333333,21.837037 0.285185185,16.9888889 0.285185185,11.0407407 C0.285185185,5.09259259 5.13333333,0.244444444 11.0814815,0.244444444 C17.0296296,0.244444444 21.8777778,5.09259259 21.8777778,11.0407407 C21.837037,16.9888889 17.0296296,21.837037 11.0814815,21.837037 Z M11.0814815,2.48518519 C6.35555556,2.48518519 2.52592593,6.31481481 2.52592593,11.0407407 C2.52592593,15.7666667 6.35555556,19.5962963 11.0814815,19.5962963 C15.8074074,19.5962963 19.637037,15.7666667 19.637037,11.0407407 C19.637037,6.31481481 15.8074074,2.48518519 11.0814815,2.48518519 Z" id="Shape" fill="#000000"></path>
                </g>
            </g>
        </g>
    </g>
</svg>